<svg xmlns="http://www.w3.org/2000/svg" width="178" height="165.431" viewBox="0 0 178 165.431"><path fill="#C82236" d="M34.542 88.125l7.211-7.211c.795-.792.795-1.945 0-2.736-.776-.773-1.972-.77-2.736 0l-7.211 7.211-7.212-7.211a1.909 1.909 0 0 0-2.736 0c-.791.791-.791 1.945 0 2.736l7.208 7.211-7.208 7.211c-.791.792-.791 1.945 0 2.736.437.44.795.596 1.372.596.569 0 .925-.155 1.361-.592l7.215-7.211 7.211 7.207c.439.44.795.596 1.364.596.577 0 .932-.155 1.372-.596.795-.795.795-1.941 0-2.736l-7.211-7.211zM154.77 28.966h-6.608v-6.612c0-1.231-.736-1.967-1.968-1.967-1.228 0-1.963.736-1.963 1.967v6.612h-6.616c-1.228 0-1.964.736-1.964 1.964 0 1.231.736 1.967 1.964 1.967h6.616v6.612c0 1.231.735 1.967 1.963 1.967 1.231 0 1.968-.736 1.968-1.967v-6.612h6.608c1.23 0 1.967-.736 1.967-1.967-.001-1.228-.737-1.964-1.967-1.964zm-72.388 2.873c-14.862.477-26.803 12.713-26.803 27.69 0 15.276 12.425 27.701 27.698 27.701 3.712 0 7.251-.754 11.367-2.426L82.382 59.529v-27.69z"/><path fill="#2A97EA" d="M28.943 31.824H17.506c-1.229 0-1.961.736-1.961 1.967s.732 1.964 1.961 1.964h11.438c1.231 0 1.967-.732 1.967-1.964s-.736-1.967-1.968-1.967zm17.159 0h-5.721c-1.228 0-1.96.736-1.96 1.967s.732 1.964 1.96 1.964h5.721c1.231 0 1.967-.732 1.967-1.964s-.736-1.967-1.967-1.967zM134.756 83.3h-2.862c-1.209 0-1.964.754-1.964 1.963 0 1.231.736 1.967 1.964 1.967h2.862c1.228 0 1.96-.735 1.96-1.967 0-1.227-.733-1.963-1.96-1.963zM20.364 20.387h-2.858c-1.229 0-1.961.736-1.961 1.967 0 1.228.732 1.96 1.961 1.96h2.858c1.213 0 1.971-.751 1.971-1.96 0-1.231-.735-1.967-1.971-1.967zm25.738 0H31.806c-1.214 0-1.964.75-1.964 1.967 0 1.209.75 1.96 1.964 1.96h14.296c1.231 0 1.967-.732 1.967-1.96-.001-1.231-.736-1.967-1.967-1.967zM160.493 83.3h-14.3c-1.209 0-1.963.754-1.963 1.963 0 1.231.735 1.967 1.963 1.967h14.3c1.231 0 1.964-.735 1.964-1.967 0-1.227-.732-1.963-1.964-1.963zm0 11.442h-5.724c-1.229 0-1.961.731-1.961 1.963 0 1.213.751 1.964 1.961 1.964h5.724c1.213 0 1.964-.751 1.964-1.964 0-1.232-.732-1.963-1.964-1.963zm-17.158 0h-11.438c-1.231 0-1.968.731-1.968 1.963 0 1.228.736 1.964 1.968 1.964h11.438c1.209 0 1.964-.751 1.964-1.964 0-1.232-.737-1.963-1.964-1.963zM122.42 53.809c0-14.977-11.945-27.213-26.807-27.69v30.338l11.098 22.191h.1c9.488-4.682 15.609-14.411 15.609-24.839z"/><path fill="#565656" d="M166.092 0H11.906C5.454 0 0 5.455 0 11.907v111.855c0 6.457 5.454 11.911 11.906 11.911h55.418l.011.074c1.12 6.275-1.479 12.776-6.619 16.566l-1.923 1.395h-4.56c-3.177 0-5.861 2.685-5.861 5.861 0 3.176 2.685 5.861 5.861 5.861h69.532c3.177 0 5.861-2.686 5.861-5.861 0-3.177-2.685-5.861-5.861-5.861h-4.549l-1.915-1.383c-5.151-3.791-7.755-10.299-6.638-16.574l.011-.078h55.417c6.453 0 11.908-5.454 11.908-11.911V11.907C178 5.455 172.545 0 166.092 0zm-42.326 162.775H54.233c-1.679 0-3.206-1.526-3.206-3.205 0-1.68 1.527-3.207 3.206-3.207h69.532c1.679 0 3.206 1.527 3.206 3.207.001 1.679-1.527 3.205-3.205 3.205zm-60.614-9.067l.192-.166c5.137-4.401 7.718-11.209 6.734-17.766l-.015-.104h37.87l-.015.107c-.98 6.553 1.602 13.36 6.734 17.762l.191.166H63.152zm102.94-20.69H11.906c-5.014 0-9.252-4.237-9.252-9.256v-10.069h172.689v10.069c.001 5.019-4.237 9.256-9.251 9.256zM11.906 2.655h154.186c5.015 0 9.252 4.238 9.252 9.252v99.13H2.654v-99.13c0-5.014 4.239-9.252 9.252-9.252z"/></svg>