<svg xmlns="http://www.w3.org/2000/svg" width="182" height="182.803" viewBox="0 0 182 182.803"><path fill="#565656" d="M181.988 119.07c0-3.628-2.945-5.795-5.791-5.795h-18.311v-18.19c0-1.051-.578-1.633-1.628-1.633h-63.79V78.017h33.89c12.648 0 22.184-9.938 22.184-23.122 0-10.737-6.338-19.931-15.772-22.877l-.953-.294-.089-.996C130.211 13.497 115.811 0 98.941 0 88.82 0 78.77 4.919 72.056 13.16l-.675.825-1-.372c-1.949-.732-4.709-1.151-7.578-1.151-9.628 0-16.889 7.128-16.889 16.579v1.217l-.748.388c-7.407 4.442-12.023 12.784-12.023 21.757 0 14.125 10.791 25.614 24.056 25.614h32.018v15.435H25.421c-1.062 0-1.624.566-1.624 1.633v18.19H5.795c-3.356 0-5.795 2.438-5.795 5.795v57.942c0 3.355 2.438 5.791 5.795 5.791h39.251c3.295 0 5.753-2.268 6.117-5.641l-.012-58.093c0-3.628-2.946-5.795-5.791-5.795H27.049V96.708h62.167v16.567H71.215c-3.625 0-5.791 2.946-5.791 5.795v57.942c0 3.623 2.945 5.791 5.791 5.791h39.254c3.291 0 5.748-2.268 6.113-5.641l-.012-58.093c0-3.628-2.946-5.795-5.791-5.795H92.468V96.708h62.167v16.567h-18.002c-3.624 0-5.791 2.946-5.791 5.795v57.942c0 3.623 2.946 5.791 5.791 5.791h39.255c3.291 0 5.749-2.268 6.112-5.641l-.012-58.092zM45.36 116.252c1.089 0 2.813.764 2.813 2.817l.02 57.931c-.189 1.736-1.422 2.825-3.147 2.825H5.795c-1.736 0-2.817-1.077-2.817-2.813V119.07c0-1.737 1.081-2.817 2.817-2.817H45.36zm65.419 0c1.089 0 2.813.764 2.813 2.817l.02 57.931c-.189 1.736-1.423 2.825-3.144 2.825H71.215c-1.09 0-2.814-.764-2.814-2.813V119.07c0-1.089.764-2.817 2.814-2.817h39.564zM57.198 74.761c-11.47 0-20.804-10.032-20.804-22.358 0-8.873 4.512-16.435 11.775-19.738l.996-.496v-3.128c0-7.722 5.737-13.327 13.637-13.327 7.69 0 13.951 6.26 13.951 13.951 0 1.062.562 1.624 1.624 1.624 1.05 0 1.628-.578 1.628-1.624 0-4.938-1.938-9.442-5.458-12.687l-1-.926.833-1.074C80.09 7.555 89.381 2.942 98.63 2.942c15.176 0 27.916 11.59 29.638 26.963l.217 1.892-1.892-.248c-3.124-.419-5.811-.45-7.768-.108-.431.019-.687.143-.915.422-.303.368-.453.872-.376 1.248.023.868.965 1.454 1.675 1.326a16.64 16.64 0 0 1 1.849-.093c2.372 0 5.598.341 9.59 1.02l.364-.023c.147 0 .303-.035.462-.097l.526-.202.523.194c7.636 2.791 12.765 10.695 12.765 19.66 0 11.327-8.141 19.866-18.932 19.866H57.198zm118.69 105.065h-39.255c-1.089 0-2.813-.764-2.813-2.813V119.07c0-1.089.764-2.817 2.813-2.817h39.564c1.09 0 2.814.764 2.814 2.817l.02 57.931c-.189 1.736-1.423 2.825-3.143 2.825z"/><path fill="#E97527" d="M90.844 136.571c-1.33 0-2.124.791-2.124 2.121 0 1.332.794 2.127 2.124 2.127 1.329 0 2.12-.795 2.12-2.127 0-1.33-.791-2.121-2.12-2.121zm-6.234-9.346c-1.329 0-2.124.795-2.124 2.125 0 1.329.795 2.119 2.124 2.119 1.33 0 2.124-.79 2.124-2.119 0-1.33-.794-2.125-2.124-2.125zm12.458 0c-1.329 0-2.124.795-2.124 2.125 0 1.329.795 2.119 2.124 2.119 1.33 0 2.125-.79 2.125-2.119 0-1.33-.795-2.125-2.125-2.125zm71.657 18.692c-1.33 0-2.124.795-2.124 2.124s.794 2.12 2.124 2.12c1.329 0 2.12-.791 2.12-2.12s-.791-2.124-2.12-2.124zm-65.423 6.228H78.378c-1.33 0-2.12.795-2.12 2.125 0 1.329.79 2.12 2.12 2.12h24.924c1.329 0 2.124-.791 2.124-2.12 0-1.33-.795-2.125-2.124-2.125zm65.423 12.463h-24.924c-1.33 0-2.125.795-2.125 2.124s.795 2.12 2.125 2.12h24.924c1.329 0 2.12-.791 2.12-2.12s-.791-2.124-2.12-2.124zM25.421 145.917c-1.33 0-2.12.795-2.12 2.124s.79 2.12 2.12 2.12c1.329 0 2.124-.791 2.124-2.12s-.795-2.124-2.124-2.124zm12.458 0c-1.33 0-2.12.795-2.12 2.124s.79 2.12 2.12 2.12c1.329 0 2.124-.791 2.124-2.12s-.795-2.124-2.124-2.124z"/><path fill="#2A97EA" d="M168.725 127.225h-24.924c-1.33 0-2.125.795-2.125 2.125 0 1.329.795 2.119 2.125 2.119h24.924c1.329 0 2.12-.79 2.12-2.119 0-1.33-.791-2.125-2.12-2.125zm-65.423 37.383h-9.346c-1.329 0-2.12.795-2.12 2.124s.791 2.12 2.12 2.12h9.346c1.329 0 2.124-.791 2.124-2.12s-.795-2.124-2.124-2.124zm52.957-18.691c-1.33 0-2.12.795-2.12 2.124s.79 2.12 2.12 2.12c1.329 0 2.124-.791 2.124-2.12s-.795-2.124-2.124-2.124zm-143.296 4.244c1.329 0 2.12-.791 2.12-2.12s-.791-2.124-2.12-2.124c-1.33 0-2.125.795-2.125 2.124s.795 2.12 2.125 2.12zm24.92 14.447h-24.92c-1.33 0-2.125.795-2.125 2.124s.795 2.12 2.125 2.12h24.92c1.329 0 2.12-.791 2.12-2.12s-.791-2.124-2.12-2.124zm40.495-28.037c-1.33 0-2.12.791-2.12 2.121 0 1.332.79 2.127 2.12 2.127 1.329 0 2.124-.795 2.124-2.127 0-1.33-.795-2.121-2.124-2.121zm-40.495-9.346h-24.92c-1.33 0-2.125.795-2.125 2.125 0 1.329.795 2.119 2.125 2.119h24.92c1.329 0 2.12-.79 2.12-2.119 0-1.33-.791-2.125-2.12-2.125zm65.419 9.346c-1.329 0-2.124.791-2.124 2.121 0 1.332.795 2.127 2.124 2.127s2.124-.795 2.124-2.127c0-1.307-.815-2.121-2.124-2.121zm40.499 9.346c-1.33 0-2.125.795-2.125 2.124s.795 2.12 2.125 2.12c1.329 0 2.124-.791 2.124-2.12s-.795-2.124-2.124-2.124zm-62.307 18.691h-3.116c-1.33 0-2.12.795-2.12 2.124s.79 2.12 2.12 2.12h3.116c1.329 0 2.124-.791 2.124-2.12s-.795-2.124-2.124-2.124z"/></svg>