<svg xmlns="http://www.w3.org/2000/svg" width="178" height="165.431" viewBox="0 0 178 165.431"><path fill="#2A97EA" d="M34.538 88.125l7.211-7.211c.799-.792.799-1.945 0-2.736a1.906 1.906 0 0 0-2.736 0l-7.211 7.211-7.211-7.211a1.909 1.909 0 0 0-2.736 0c-.792.791-.792 1.945 0 2.736l7.211 7.211-7.211 7.211c-.792.792-.792 1.945 0 2.736.437.44.799.596 1.376.596.569 0 .924-.155 1.36-.592l7.211-7.211 7.211 7.207c.444.44.799.596 1.368.596.577 0 .932-.155 1.368-.596.799-.795.799-1.941 0-2.736l-7.211-7.211z"/><path fill="#E97527" d="M154.766 28.966h-6.604v-6.612c0-1.231-.739-1.967-1.968-1.967-1.228 0-1.967.736-1.967 1.967v6.612h-6.612c-1.228 0-1.967.736-1.967 1.964 0 1.231.739 1.967 1.967 1.967h6.612v6.612c0 1.231.739 1.967 1.967 1.967 1.229 0 1.968-.736 1.968-1.967v-6.612h6.604c1.234 0 1.967-.736 1.967-1.967-.001-1.228-.733-1.964-1.967-1.964z"/><path fill="#2A97EA" d="M82.382 31.839c-14.865.477-26.802 12.714-26.802 27.69 0 15.276 12.425 27.701 27.697 27.701 3.713 0 7.248-.754 11.367-2.426L82.382 59.529v-27.69zm-53.443-.015H17.506c-1.229 0-1.96.736-1.96 1.967s.731 1.964 1.96 1.964H28.94c1.235 0 1.968-.732 1.968-1.964s-.733-1.967-1.969-1.967z"/><path fill="#E97527" d="M46.098 31.824h-5.717c-1.228 0-1.96.736-1.96 1.967s.732 1.964 1.96 1.964h5.717c1.235 0 1.968-.732 1.968-1.964s-.733-1.967-1.968-1.967z"/><path fill="#2A97EA" d="M134.752 83.3h-2.861c-1.206 0-1.961.754-1.961 1.963 0 1.231.732 1.967 1.961 1.967h2.861c1.229 0 1.96-.735 1.96-1.967 0-1.227-.732-1.963-1.96-1.963z"/><path fill="#E97527" d="M20.36 20.387h-2.854c-1.229 0-1.96.736-1.96 1.967 0 1.228.731 1.96 1.96 1.96h2.854c1.213 0 1.975-.751 1.975-1.96 0-1.231-.739-1.967-1.975-1.967z"/><path fill="#2A97EA" d="M46.098 20.387H31.802c-1.213 0-1.96.75-1.96 1.967 0 1.209.747 1.96 1.96 1.96h14.296c1.235 0 1.968-.732 1.968-1.96-.001-1.231-.733-1.967-1.968-1.967zM160.49 83.3h-14.297c-1.213 0-1.967.754-1.967 1.963 0 1.231.739 1.967 1.967 1.967h14.297c1.234 0 1.967-.735 1.967-1.967 0-1.227-.732-1.963-1.967-1.963zm0 11.442h-5.725c-1.228 0-1.96.731-1.96 1.963 0 1.213.754 1.964 1.96 1.964h5.725c1.213 0 1.967-.751 1.967-1.964 0-1.232-.732-1.963-1.967-1.963z"/><path fill="#E97527" d="M143.332 94.742h-11.435c-1.235 0-1.968.731-1.968 1.963 0 1.228.732 1.964 1.968 1.964h11.435c1.213 0 1.967-.751 1.967-1.964 0-1.232-.74-1.963-1.967-1.963zm-20.916-40.933c0-14.977-11.944-27.213-26.803-27.69v30.338l11.094 22.191h.104c9.489-4.682 15.605-14.411 15.605-24.839z"/><path fill="#565656" d="M166.092 0H11.907C5.454 0 0 5.455 0 11.907v111.855c0 6.457 5.454 11.911 11.907 11.911h55.417l.011.074c1.12 6.275-1.479 12.776-6.619 16.566l-1.923 1.395h-4.56c-3.177 0-5.861 2.685-5.861 5.861 0 3.176 2.685 5.861 5.861 5.861h69.532c3.177 0 5.861-2.686 5.861-5.861 0-3.177-2.685-5.861-5.861-5.861h-4.549l-1.915-1.383c-5.151-3.791-7.755-10.299-6.638-16.574l.011-.078h55.417c6.453 0 11.908-5.454 11.908-11.911V11.907C178 5.455 172.545 0 166.092 0zm-42.326 162.775H54.233c-1.679 0-3.206-1.526-3.206-3.205 0-1.68 1.527-3.207 3.206-3.207h69.532c1.679 0 3.206 1.527 3.206 3.207.001 1.679-1.527 3.205-3.205 3.205zm-60.614-9.067l.193-.166c5.136-4.401 7.717-11.209 6.733-17.766l-.015-.104h37.87l-.015.107c-.979 6.553 1.602 13.36 6.734 17.762l.191.166H63.152zm102.94-20.69H11.907c-5.015 0-9.253-4.237-9.253-9.256v-10.069h172.69v10.069c.001 5.019-4.238 9.256-9.252 9.256zM11.907 2.655h154.185c5.015 0 9.253 4.238 9.253 9.252v99.13H2.654v-99.13c0-5.014 4.239-9.252 9.253-9.252z"/></svg>