<svg xmlns="http://www.w3.org/2000/svg" width="109" height="23.802" viewBox="0 0 110 24"><path fill="#596693" d="M9.98 20.567c-.202-.484-.469-1.1-.802-1.846s-.691-1.553-1.074-2.419a121.21 121.21 0 0 0-1.225-2.677l-1.225-2.601A65.398 65.398 0 0 0 4.58 8.831c-.333-.645-.6-1.139-.802-1.481a184.393 184.393 0 0 0-.544 7.727c-.142 2.773-.262 5.57-.362 8.393H0c.08-1.814.17-3.644.271-5.488A324.05 324.05 0 0 1 1.042 7.32c.152-1.693.319-3.296.5-4.809h2.57c.544.888 1.13 1.936 1.754 3.146a123.67 123.67 0 0 1 1.876 3.795 173.986 173.986 0 0 1 1.813 3.962c.586 1.321 1.12 2.526 1.604 3.614l1.603-3.614a169.84 169.84 0 0 1 1.815-3.962 118.248 118.248 0 0 1 1.874-3.795 49.545 49.545 0 0 1 1.754-3.146h2.57c.687 6.755 1.2 13.741 1.544 20.959h-2.873a573.175 573.175 0 0 0-.364-8.393 184.393 184.393 0 0 0-.544-7.727c-.202.343-.469.837-.802 1.481-.332.646-.69 1.376-1.073 2.193s-.791 1.683-1.226 2.601c-.433.918-.841 1.811-1.225 2.677-.383.866-.741 1.673-1.074 2.419-.331.746-.6 1.361-.801 1.846H9.98zM31.817 7.35c1.128 0 2.08.146 2.856.438.777.292 1.401.706 1.877 1.24a4.718 4.718 0 0 1 1.013 1.905c.2.736.303 1.548.303 2.435v9.83c-.243.041-.58.096-1.014.166-.435.071-.923.137-1.468.197s-1.133.115-1.769.166-1.266.075-1.891.075c-.889 0-1.704-.091-2.45-.272-.745-.181-1.392-.468-1.936-.861-.545-.393-.968-.912-1.27-1.558s-.455-1.421-.455-2.329c0-.867.178-1.613.53-2.238s.832-1.129 1.437-1.512 1.311-.666 2.117-.848a11.572 11.572 0 0 1 2.54-.271c.283 0 .574.016.877.045.303.031.592.071.863.121.272.051.508.096.711.137.2.04.342.07.422.09v-.786c0-.464-.05-.923-.149-1.376a3.212 3.212 0 0 0-.545-1.21 2.778 2.778 0 0 0-1.074-.847c-.454-.211-1.044-.318-1.77-.318-.929 0-1.739.066-2.435.197s-1.215.267-1.558.408l-.333-2.329c.362-.161.968-.317 1.814-.469a15.78 15.78 0 0 1 2.757-.226zm.242 14.094c.665 0 1.255-.016 1.769-.045a7.73 7.73 0 0 0 1.285-.167v-4.688c-.201-.101-.529-.186-.982-.256a10.847 10.847 0 0 0-1.647-.107c-.424 0-.873.031-1.347.092s-.906.187-1.301.378a2.755 2.755 0 0 0-.982.786c-.263.332-.395.771-.395 1.316 0 1.008.323 1.709.969 2.102.643.392 1.52.589 2.631.589zM45.154 7.743h5.959v2.359h-5.959v7.258c0 .787.06 1.438.183 1.951.12.515.302.918.544 1.21.241.292.544.499.907.62.362.121.786.182 1.269.182.849 0 1.528-.096 2.044-.287.513-.191.871-.328 1.072-.408l.546 2.328c-.283.142-.777.318-1.482.529-.707.212-1.513.317-2.421.317-1.068 0-1.95-.136-2.646-.407-.697-.273-1.255-.681-1.68-1.226-.422-.544-.721-1.214-.891-2.011-.173-.797-.259-1.72-.259-2.768V3.357l2.813-.484v4.87zm9.527 15.726V.483L57.493 0v8.045a9.705 9.705 0 0 1 1.679-.469 9.633 9.633 0 0 1 1.769-.167c1.251 0 2.289.177 3.116.53.826.353 1.486.847 1.98 1.481.494.635.842 1.396 1.044 2.284.201.888.303 1.865.303 2.935v8.83h-2.812v-8.227c0-.967-.066-1.793-.196-2.479-.132-.687-.348-1.241-.65-1.664a2.575 2.575 0 0 0-1.21-.922c-.506-.191-1.131-.287-1.876-.287-.303 0-.615.02-.938.061-.323.04-.631.086-.924.136a9.244 9.244 0 0 0-.786.167c-.231.06-.398.111-.499.151V23.47h-2.812z"/><path fill="#E97527" d="M89.343 12.975c0 1.814-.283 3.393-.847 4.732-.566 1.342-1.363 2.451-2.391 3.328-1.028.877-2.258 1.532-3.689 1.966-1.433.434-3.005.649-4.719.649-.847 0-1.78-.035-2.799-.105a16.556 16.556 0 0 1-2.767-.408V2.812a16.644 16.644 0 0 1 2.767-.408 40.507 40.507 0 0 1 2.799-.106c1.714 0 3.286.217 4.719.65 1.432.434 2.661 1.089 3.689 1.966 1.027.877 1.824 1.986 2.391 3.327.564 1.342.847 2.919.847 4.734zm-11.405 8.106c2.784 0 4.86-.711 6.232-2.133 1.37-1.42 2.056-3.412 2.056-5.973 0-2.56-.686-4.552-2.056-5.973-1.372-1.421-3.448-2.133-6.232-2.133-.826 0-1.466.01-1.92.03-.454.021-.77.041-.953.061v16.03c.183.021.499.04.953.062.455.019 1.094.029 1.92.029zm21.415 2.57a35.996 35.996 0 0 1-4.325-.271 11.36 11.36 0 0 1-1.331-.242V2.812a11.36 11.36 0 0 1 1.331-.242 36.153 36.153 0 0 1 4.295-.272c1.21 0 2.343.091 3.402.272 1.059.182 1.975.489 2.752.923.776.434 1.386 1.003 1.829 1.708.444.706.667 1.573.667 2.601 0 1.149-.272 2.092-.816 2.828-.546.736-1.271 1.286-2.18 1.648 1.23.363 2.209.938 2.935 1.725.727.786 1.089 1.896 1.089 3.327 0 2.097-.771 3.674-2.312 4.733-1.545 1.059-3.99 1.588-7.336 1.588zm-2.752-12.309h3.085c.725 0 1.41-.051 2.056-.151s1.205-.283 1.679-.545a3.035 3.035 0 0 0 1.118-1.028c.272-.423.41-.957.41-1.603 0-.605-.142-1.114-.424-1.528a3.08 3.08 0 0 0-1.164-.998 6.344 6.344 0 0 0-1.739-.559c-.667-.122-1.372-.182-2.118-.182s-1.33.011-1.753.031c-.424.02-.807.051-1.149.09v6.473zm0 2.36v7.379a32.58 32.58 0 0 0 1.708.106c.353.012.761.016 1.225.016.867 0 1.689-.055 2.465-.166.777-.111 1.458-.308 2.042-.59s1.054-.676 1.406-1.18.53-1.139.53-1.906c0-.684-.132-1.265-.395-1.738a2.918 2.918 0 0 0-1.134-1.135c-.494-.281-1.084-.483-1.77-.604s-1.452-.181-2.299-.181h-3.778z"/></svg>