<?xml version="1.0" encoding="utf-8"?>
<!-- Generator: Adobe Illustrator 16.0.0, SVG Export Plug-In . SVG Version: 6.00 Build 0)  -->
<!DOCTYPE svg PUBLIC "-//W3C//DTD SVG 1.1//EN" "http://www.w3.org/Graphics/SVG/1.1/DTD/svg11.dtd">
<svg version="1.1" id="Шар_1" xmlns="http://www.w3.org/2000/svg" xmlns:xlink="http://www.w3.org/1999/xlink" x="0px" y="0px"
	 width="67px" height="33.732px" viewBox="0 0 67 33.732" enable-background="new 0 0 67 33.732" xml:space="preserve">
<g>
	<path d="M45.084,18.586c1.078,0,1.722-0.645,1.722-1.721c0-1.078-0.644-1.718-1.722-1.718c-1.077,0-1.718,0.641-1.718,1.718
		C43.366,17.941,44.007,18.586,45.084,18.586z"/>
	<path d="M6.77,33.732c1.077,0,1.721-0.645,1.721-1.721c0-1.078-0.644-1.719-1.721-1.719c-1.078,0-1.719,0.641-1.719,1.719
		C5.051,33.088,5.691,33.732,6.77,33.732z"/>
	<path d="M11.816,26.159c1.078,0,1.722-0.641,1.722-1.718c0-1.081-0.644-1.725-1.722-1.725c-1.077,0-1.718,0.644-1.718,1.725
		C10.099,25.519,10.739,26.159,11.816,26.159z"/>
	<path d="M16.868,33.732c1.077,0,1.721-0.645,1.721-1.721c0-1.078-0.644-1.719-1.721-1.719c-1.078,0-1.722,0.641-1.722,1.719
		C15.146,33.088,15.79,33.732,16.868,33.732z"/>
	<path d="M6.772,33.732c1.077,0,1.722-0.645,1.722-1.721c0-1.078-0.645-1.719-1.722-1.719s-1.722,0.641-1.722,1.719
		C5.051,33.088,5.695,33.732,6.772,33.732z"/>
	<path d="M1.722,13.538h20.197c1.077,0,1.718-0.644,1.718-1.721c0-1.078-0.641-1.718-1.718-1.718H1.722
		C0.645,10.099,0,10.739,0,11.817C0,12.894,0.645,13.538,1.722,13.538z"/>
	<path d="M55.184,18.586c1.077,0,1.718-0.645,1.718-1.721c0-1.078-0.641-1.718-1.718-1.718c-1.078,0-1.722,0.641-1.722,1.718
		C53.462,17.941,54.105,18.586,55.184,18.586z"/>
	<path d="M1.722,3.439h7.573c1.077,0,1.718-0.644,1.718-1.721C11.013,0.641,10.372,0,9.295,0H1.722C0.645,0,0,0.641,0,1.718
		C0,2.795,0.645,3.439,1.722,3.439z"/>
	<path d="M65.278,15.146c-1.077,0-1.718,0.641-1.718,1.718c0,1.077,0.641,1.721,1.718,1.721c1.078,0,1.722-0.645,1.722-1.721
		C67,15.787,66.356,15.146,65.278,15.146z"/>
	<path d="M45.084,3.439h20.194C66.356,3.439,67,2.795,67,1.718C67,0.641,66.356,0,65.278,0H45.084c-1.077,0-1.718,0.641-1.718,1.718
		C43.366,2.795,44.007,3.439,45.084,3.439z"/>
	<path d="M21.919,26.159c1.077,0,1.718-0.641,1.718-1.718c0-1.081-0.641-1.725-1.718-1.725s-1.722,0.644-1.722,1.725
		C20.197,25.519,20.842,26.159,21.919,26.159z"/>
	<path d="M45.084,33.732h20.194c1.078,0,1.722-0.645,1.722-1.721c0-1.078-0.644-1.719-1.722-1.719H45.084
		c-1.077,0-1.718,0.641-1.718,1.719C43.366,33.088,44.007,33.732,45.084,33.732z"/>
	<path d="M1.722,26.159c1.077,0,1.721-0.641,1.721-1.718c0-1.081-0.644-1.725-1.721-1.725S0,23.36,0,24.441
		C0,25.5,0.66,26.159,1.722,26.159z"/>
	<path d="M19.394,3.439h2.525c1.077,0,1.718-0.644,1.718-1.721C23.637,0.641,22.996,0,21.919,0h-2.525
		c-1.077,0-1.722,0.641-1.722,1.718C17.672,2.795,18.316,3.439,19.394,3.439z"/>
</g>
</svg>
