<?xml version="1.0" encoding="utf-8"?>
<!-- Generator: Adobe Illustrator 16.0.0, SVG Export Plug-In . SVG Version: 6.00 Build 0)  -->
<!DOCTYPE svg PUBLIC "-//W3C//DTD SVG 1.1//EN" "http://www.w3.org/Graphics/SVG/1.1/DTD/svg11.dtd">
<svg version="1.1" id="Шар_1" xmlns="http://www.w3.org/2000/svg" xmlns:xlink="http://www.w3.org/1999/xlink" x="0px" y="0px"
	 width="57px" height="40.003px" viewBox="0 0 57 40.003" enable-background="new 0 0 57 40.003" xml:space="preserve">
<g>
	<path d="M12.588,33.017l4.779-4.777c0.526-0.525,0.526-1.288,0-1.814c-0.515-0.512-1.307-0.51-1.814,0l-4.777,4.779l-4.779-4.779
		c-0.51-0.51-1.303-0.51-1.812,0c-0.523,0.526-0.523,1.289,0,1.814l4.777,4.777l-4.777,4.779c-0.523,0.523-0.523,1.289,0,1.812
		c0.29,0.293,0.526,0.395,0.908,0.395c0.378,0,0.615-0.102,0.902-0.393l4.781-4.779l4.777,4.777
		c0.292,0.293,0.528,0.395,0.906,0.395c0.38,0,0.616-0.102,0.908-0.395c0.526-0.525,0.526-1.286,0-1.812L12.588,33.017z"/>
	<path d="M51.905,5.686h-4.381V1.302C47.524,0.486,47.038,0,46.223,0c-0.814,0-1.301,0.486-1.301,1.302v4.383h-4.386
		c-0.813,0-1.3,0.487-1.3,1.3c0,0.816,0.486,1.302,1.3,1.302h4.386v4.383c0,0.816,0.486,1.303,1.301,1.303
		c0.815,0,1.302-0.487,1.302-1.303V8.288h4.381c0.816,0,1.303-0.486,1.303-1.302C53.208,6.172,52.722,5.686,51.905,5.686z"/>
	<path d="M8.88,7.579H1.301C0.486,7.579,0,8.066,0,8.882s0.486,1.302,1.301,1.302H8.88c0.815,0,1.303-0.486,1.303-1.302
		S9.695,7.579,8.88,7.579z"/>
	<path d="M20.248,7.579h-3.789c-0.813,0-1.301,0.487-1.301,1.303s0.487,1.302,1.301,1.302h3.789c0.816,0,1.303-0.486,1.303-1.302
		S21.064,7.579,20.248,7.579z"/>
	<path d="M38.643,29.821h-1.896c-0.802,0-1.301,0.499-1.301,1.3c0,0.816,0.487,1.303,1.301,1.303h1.896
		c0.813,0,1.301-0.486,1.301-1.303C39.943,30.308,39.456,29.821,38.643,29.821z"/>
	<path d="M3.194,0H1.301C0.486,0,0,0.486,0,1.302c0,0.813,0.486,1.3,1.301,1.3h1.894c0.804,0,1.305-0.498,1.305-1.3
		C4.499,0.486,4.012,0,3.194,0z"/>
	<path d="M20.248,0h-9.473C9.972,0,9.473,0.498,9.473,1.302c0,0.802,0.499,1.3,1.303,1.3h9.473c0.816,0,1.303-0.487,1.303-1.3
		C21.551,0.486,21.064,0,20.248,0z"/>
	<path d="M55.697,29.821h-9.475c-0.803,0-1.301,0.499-1.301,1.3c0,0.816,0.486,1.303,1.301,1.303h9.475
		c0.816,0,1.303-0.486,1.303-1.303C57,30.308,56.514,29.821,55.697,29.821z"/>
	<path d="M55.697,37.4h-3.792c-0.813,0-1.3,0.487-1.3,1.303c0,0.803,0.498,1.301,1.3,1.301h3.792c0.805,0,1.303-0.498,1.303-1.301
		C57,37.887,56.514,37.4,55.697,37.4z"/>
	<path d="M44.328,37.4h-7.579c-0.815,0-1.303,0.487-1.303,1.303c0,0.814,0.487,1.301,1.303,1.301h7.579
		c0.803,0,1.301-0.498,1.301-1.301C45.629,37.887,45.143,37.4,44.328,37.4z"/>
</g>
</svg>
