<?xml version="1.0" encoding="utf-8"?>
<!-- Generator: Adobe Illustrator 16.0.0, SVG Export Plug-In . SVG Version: 6.00 Build 0)  -->
<!DOCTYPE svg PUBLIC "-//W3C//DTD SVG 1.1//EN" "http://www.w3.org/Graphics/SVG/1.1/DTD/svg11.dtd">
<svg version="1.1" id="Шар_1" xmlns="http://www.w3.org/2000/svg" xmlns:xlink="http://www.w3.org/1999/xlink" x="0px" y="0px"
	 width="21.674px" height="19.743px" viewBox="0 0 21.674 19.743" enable-background="new 0 0 21.674 19.743" xml:space="preserve">
<path d="M0.311,10.646l8.816,8.817c0.374,0.374,1.15,0.374,1.526-0.001c0.198-0.199,0.309-0.47,0.309-0.763
	c0-0.292-0.11-0.564-0.309-0.763L3.69,10.974h16.892c0.603,0,1.092-0.489,1.092-1.091s-0.489-1.092-1.092-1.092H3.69l6.963-6.962
	c0.413-0.412,0.413-1.112,0-1.526c-0.404-0.403-1.123-0.403-1.526,0L0.311,9.119C-0.104,9.533-0.104,10.231,0.311,10.646z"/>
</svg>
