<?xml version="1.0" encoding="utf-8"?>
<!-- Generator: Adobe Illustrator 16.0.0, SVG Export Plug-In . SVG Version: 6.00 Build 0)  -->
<!DOCTYPE svg PUBLIC "-//W3C//DTD SVG 1.1//EN" "http://www.w3.org/Graphics/SVG/1.1/DTD/svg11.dtd">
<svg version="1.1" id="Шар_1" xmlns="http://www.w3.org/2000/svg" xmlns:xlink="http://www.w3.org/1999/xlink" x="0px" y="0px"
	 width="10px" height="18.496px" viewBox="0 0 10 18.496" enable-background="new 0 0 10 18.496" xml:space="preserve">
<g>
	<path fill="#1D1D1B" d="M9.623,0.004L7.226,0C4.53,0,2.789,1.787,2.789,4.552v2.099H0.377C0.169,6.651,0,6.82,0,7.028v3.041
		c0,0.208,0.169,0.377,0.377,0.377h2.412v7.673c0,0.209,0.169,0.377,0.377,0.377h3.146c0.208,0,0.377-0.169,0.377-0.377v-7.673
		h2.819c0.209,0,0.378-0.169,0.378-0.377l0.001-3.041c0-0.1-0.04-0.196-0.11-0.267C9.706,6.69,9.61,6.651,9.511,6.651H6.689V4.872
		c0-0.855,0.204-1.289,1.317-1.289l1.616-0.001C9.831,3.582,10,3.413,10,3.205V0.381C10,0.173,9.831,0.004,9.623,0.004z"/>
</g>
</svg>
