<?xml version="1.0" encoding="utf-8"?>
<!-- Generator: Adobe Illustrator 16.0.0, SVG Export Plug-In . SVG Version: 6.00 Build 0)  -->
<!DOCTYPE svg PUBLIC "-//W3C//DTD SVG 1.1//EN" "http://www.w3.org/Graphics/SVG/1.1/DTD/svg11.dtd">
<svg version="1.1" id="Шар_1" xmlns="http://www.w3.org/2000/svg" xmlns:xlink="http://www.w3.org/1999/xlink" x="0px" y="0px"
	 width="67px" height="33.732px" viewBox="0 0 67 33.732" enable-background="new 0 0 67 33.732" xml:space="preserve">
<g>
	<path d="M21.916,15.146c-1.078,0-1.722,0.644-1.722,1.721c0,1.078,0.644,1.718,1.722,1.718c1.077,0,1.718-0.641,1.718-1.718
		C23.634,15.791,22.993,15.146,21.916,15.146z"/>
	<path d="M60.23,0c-1.077,0-1.721,0.644-1.721,1.721c0,1.078,0.644,1.718,1.721,1.718c1.078,0,1.719-0.641,1.719-1.718
		C61.949,0.644,61.309,0,60.23,0z"/>
	<path d="M55.184,7.573c-1.078,0-1.722,0.641-1.722,1.718c0,1.081,0.644,1.725,1.722,1.725c1.077,0,1.718-0.644,1.718-1.725
		C56.901,8.214,56.261,7.573,55.184,7.573z"/>
	<path d="M50.132,0c-1.077,0-1.721,0.644-1.721,1.721c0,1.078,0.644,1.718,1.721,1.718c1.078,0,1.722-0.641,1.722-1.718
		C51.854,0.644,51.21,0,50.132,0z"/>
	<path d="M60.228,0c-1.077,0-1.722,0.644-1.722,1.721c0,1.078,0.645,1.718,1.722,1.718s1.722-0.641,1.722-1.718
		C61.949,0.644,61.305,0,60.228,0z"/>
	<path d="M65.278,20.194H45.081c-1.077,0-1.718,0.644-1.718,1.722c0,1.077,0.641,1.718,1.718,1.718h20.197
		c1.077,0,1.722-0.641,1.722-1.718C67,20.838,66.355,20.194,65.278,20.194z"/>
	<path d="M11.816,15.146c-1.077,0-1.718,0.644-1.718,1.721c0,1.078,0.641,1.718,1.718,1.718c1.078,0,1.722-0.641,1.722-1.718
		C13.538,15.791,12.895,15.146,11.816,15.146z"/>
	<path d="M65.278,30.293h-7.573c-1.077,0-1.718,0.645-1.718,1.721c0,1.078,0.641,1.719,1.718,1.719h7.573
		c1.077,0,1.722-0.641,1.722-1.719C67,30.938,66.355,30.293,65.278,30.293z"/>
	<path d="M1.722,18.586c1.077,0,1.718-0.641,1.718-1.718c0-1.077-0.641-1.721-1.718-1.721C0.644,15.146,0,15.791,0,16.868
		C0,17.945,0.644,18.586,1.722,18.586z"/>
	<path d="M21.916,30.293H1.722C0.644,30.293,0,30.938,0,32.014c0,1.078,0.644,1.719,1.722,1.719h20.194
		c1.077,0,1.718-0.641,1.718-1.719C23.634,30.938,22.993,30.293,21.916,30.293z"/>
	<path d="M45.081,7.573c-1.077,0-1.718,0.641-1.718,1.718c0,1.081,0.641,1.725,1.718,1.725s1.722-0.644,1.722-1.725
		C46.803,8.214,46.158,7.573,45.081,7.573z"/>
	<path d="M21.916,0H1.722C0.644,0,0,0.644,0,1.721c0,1.078,0.644,1.718,1.722,1.718h20.194c1.077,0,1.718-0.641,1.718-1.718
		C23.634,0.644,22.993,0,21.916,0z"/>
	<path d="M65.278,7.573c-1.077,0-1.721,0.641-1.721,1.718c0,1.081,0.644,1.725,1.721,1.725S67,10.372,67,9.292
		C67,8.233,66.34,7.573,65.278,7.573z"/>
	<path d="M47.606,30.293h-2.525c-1.077,0-1.718,0.645-1.718,1.721c0,1.078,0.641,1.719,1.718,1.719h2.525
		c1.077,0,1.722-0.641,1.722-1.719C49.328,30.938,48.684,30.293,47.606,30.293z"/>
</g>
</svg>
