<?xml version="1.0" encoding="utf-8"?>
<!-- Generator: Adobe Illustrator 16.0.0, SVG Export Plug-In . SVG Version: 6.00 Build 0)  -->
<!DOCTYPE svg PUBLIC "-//W3C//DTD SVG 1.1//EN" "http://www.w3.org/Graphics/SVG/1.1/DTD/svg11.dtd">
<svg version="1.1" id="Шар_1" xmlns="http://www.w3.org/2000/svg" xmlns:xlink="http://www.w3.org/1999/xlink" x="0px" y="0px"
	 width="20px" height="20px" viewBox="0 0 20 20" enable-background="new 0 0 20 20" xml:space="preserve">
<g>
	<path d="M19.755,18.58l-4.808-4.809c1.191-1.453,1.91-3.314,1.91-5.343C16.857,3.776,13.082,0,8.429,0C3.771,0,0,3.776,0,8.429
		c0,4.653,3.771,8.429,8.429,8.429c2.028,0,3.886-0.715,5.339-1.906l4.809,4.805c0.326,0.326,0.853,0.326,1.179,0
		C20.082,19.433,20.082,18.902,19.755,18.58z M8.429,15.18c-3.727,0-6.755-3.029-6.755-6.751c0-3.723,3.028-6.755,6.755-6.755
		c3.723,0,6.755,3.033,6.755,6.755C15.184,12.15,12.151,15.18,8.429,15.18z"/>
</g>
</svg>
