<?xml version="1.0" encoding="utf-8"?>
<!-- Generator: Adobe Illustrator 16.0.0, SVG Export Plug-In . SVG Version: 6.00 Build 0)  -->
<!DOCTYPE svg PUBLIC "-//W3C//DTD SVG 1.1//EN" "http://www.w3.org/Graphics/SVG/1.1/DTD/svg11.dtd">
<svg version="1.1" id="Шар_1" xmlns="http://www.w3.org/2000/svg" xmlns:xlink="http://www.w3.org/1999/xlink" x="0px" y="0px"
	 width="21.674px" height="19.744px" viewBox="0 0 21.674 19.744" enable-background="new 0 0 21.674 19.744" xml:space="preserve">
<path d="M21.363,9.098l-8.816-8.817c-0.374-0.374-1.15-0.374-1.526,0.001c-0.198,0.199-0.309,0.47-0.309,0.763
	c0,0.292,0.11,0.564,0.309,0.763l6.963,6.963H1.092C0.489,8.77,0,9.259,0,9.861s0.489,1.092,1.092,1.092h16.892l-6.963,6.962
	c-0.413,0.412-0.413,1.112,0,1.526c0.404,0.403,1.123,0.403,1.526,0l8.816-8.816C21.777,10.21,21.777,9.512,21.363,9.098z"/>
</svg>
