<?xml version="1.0" encoding="utf-8"?>
<!-- Generator: Adobe Illustrator 16.0.0, SVG Export Plug-In . SVG Version: 6.00 Build 0)  -->
<!DOCTYPE svg PUBLIC "-//W3C//DTD SVG 1.1//EN" "http://www.w3.org/Graphics/SVG/1.1/DTD/svg11.dtd">
<svg version="1.1" id="Шар_1" xmlns="http://www.w3.org/2000/svg" xmlns:xlink="http://www.w3.org/1999/xlink" x="0px" y="0px"
	 width="57px" height="40.003px" viewBox="0 0 57 40.003" enable-background="new 0 0 57 40.003" xml:space="preserve">
<g>
	<path d="M44.412,6.986l-4.779,4.777c-0.526,0.526-0.526,1.289,0,1.815c0.515,0.512,1.307,0.51,1.814,0l4.777-4.779l4.779,4.779
		c0.51,0.51,1.303,0.51,1.812,0c0.523-0.526,0.523-1.289,0-1.815l-4.777-4.777l4.777-4.779c0.523-0.524,0.523-1.289,0-1.812
		C52.526,0.102,52.29,0,51.908,0c-0.378,0-0.615,0.102-0.902,0.392l-4.781,4.779l-4.777-4.777C41.155,0.102,40.919,0,40.541,0
		c-0.38,0-0.616,0.102-0.908,0.394c-0.526,0.526-0.526,1.286,0,1.812L44.412,6.986z"/>
	<path d="M5.095,34.318h4.381v4.383c0,0.816,0.486,1.303,1.302,1.303c0.814,0,1.301-0.486,1.301-1.303v-4.383h4.386
		c0.813,0,1.3-0.487,1.3-1.301c0-0.816-0.486-1.303-1.3-1.303h-4.386v-4.383c0-0.816-0.486-1.303-1.301-1.303
		c-0.815,0-1.302,0.486-1.302,1.303v4.383H5.095c-0.816,0-1.303,0.486-1.303,1.303C3.792,33.831,4.278,34.318,5.095,34.318z"/>
	<path d="M48.12,32.423h7.579c0.814,0,1.301-0.486,1.301-1.303c0-0.815-0.486-1.302-1.301-1.302H48.12
		c-0.815,0-1.303,0.486-1.303,1.302C46.817,31.937,47.305,32.423,48.12,32.423z"/>
	<path d="M36.752,32.423h3.789c0.813,0,1.301-0.486,1.301-1.303c0-0.815-0.487-1.302-1.301-1.302h-3.789
		c-0.816,0-1.303,0.486-1.303,1.302C35.449,31.937,35.936,32.423,36.752,32.423z"/>
	<path d="M18.357,10.182h1.896c0.802,0,1.301-0.499,1.301-1.3c0-0.816-0.487-1.303-1.301-1.303h-1.896
		c-0.813,0-1.301,0.487-1.301,1.303C17.057,9.695,17.544,10.182,18.357,10.182z"/>
	<path d="M53.806,40.003h1.894c0.814,0,1.301-0.486,1.301-1.303c0-0.813-0.486-1.301-1.301-1.301h-1.894
		c-0.804,0-1.305,0.498-1.305,1.301C52.501,39.517,52.988,40.003,53.806,40.003z"/>
	<path d="M36.752,40.003h9.473c0.804,0,1.303-0.498,1.303-1.303c0-0.803-0.499-1.301-1.303-1.301h-9.473
		c-0.816,0-1.303,0.487-1.303,1.301C35.449,39.517,35.936,40.003,36.752,40.003z"/>
	<path d="M1.303,10.182h9.475c0.803,0,1.301-0.499,1.301-1.3c0-0.816-0.486-1.303-1.301-1.303H1.303C0.486,7.579,0,8.066,0,8.882
		C0,9.695,0.486,10.182,1.303,10.182z"/>
	<path d="M1.303,2.603h3.792c0.813,0,1.3-0.487,1.3-1.302c0-0.802-0.498-1.3-1.3-1.3H1.303C0.498,0,0,0.498,0,1.3
		C0,2.116,0.486,2.603,1.303,2.603z"/>
	<path d="M12.672,2.603h7.579c0.815,0,1.303-0.487,1.303-1.302c0-0.814-0.487-1.3-1.303-1.3h-7.579c-0.803,0-1.301,0.498-1.301,1.3
		C11.371,2.116,11.857,2.603,12.672,2.603z"/>
</g>
</svg>
