<?xml version="1.0" encoding="utf-8"?>
<!-- Generator: Adobe Illustrator 16.0.0, SVG Export Plug-In . SVG Version: 6.00 Build 0)  -->
<!DOCTYPE svg PUBLIC "-//W3C//DTD SVG 1.1//EN" "http://www.w3.org/Graphics/SVG/1.1/DTD/svg11.dtd">
<svg version="1.1" id="Шар_1" xmlns="http://www.w3.org/2000/svg" xmlns:xlink="http://www.w3.org/1999/xlink" x="0px" y="0px"
	 width="19px" height="18.155px" viewBox="0 0 19 18.155" enable-background="new 0 0 19 18.155" xml:space="preserve">
<g>
	<path id="LinkedIn_2_" fill="#1D1D1B" d="M19,11.131v7.024h-4.072v-6.554c0-1.646-0.589-2.77-2.063-2.77
		c-1.125,0-1.795,0.757-2.089,1.49c-0.108,0.262-0.136,0.627-0.136,0.992v6.842H6.566c0,0,0.055-11.1,0-12.25h4.073v1.736
		c-0.009,0.013-0.02,0.027-0.027,0.039h0.027V7.642c0.541-0.833,1.508-2.024,3.67-2.024C16.99,5.617,19,7.368,19,11.131z M2.306,0
		C0.912,0,0,0.914,0,2.116c0,1.176,0.885,2.118,2.251,2.118h0.027c1.421,0,2.304-0.941,2.304-2.118C4.556,0.914,3.699,0,2.306,0z
		 M0.242,18.155h4.072V5.905H0.242V18.155z"/>
</g>
</svg>
