<?xml version="1.0" encoding="utf-8"?>
<!-- Generator: Adobe Illustrator 16.0.0, SVG Export Plug-In . SVG Version: 6.00 Build 0)  -->
<!DOCTYPE svg PUBLIC "-//W3C//DTD SVG 1.1//EN" "http://www.w3.org/Graphics/SVG/1.1/DTD/svg11.dtd">
<svg version="1.1" id="Шар_1" xmlns="http://www.w3.org/2000/svg" xmlns:xlink="http://www.w3.org/1999/xlink" x="0px" y="0px"
	 width="182px" height="182.803px" viewBox="0 0 182 182.803" enable-background="new 0 0 182 182.803" xml:space="preserve">
<g>
	<path fill="#565656" d="M181.988,119.07c0-3.628-2.945-5.795-5.791-5.795h-18.311v-18.19c0-1.051-0.578-1.633-1.628-1.633H92.468
		V78.017h33.89c12.648,0,22.184-9.938,22.184-23.122c0-10.737-6.338-19.931-15.772-22.877l-0.953-0.294l-0.089-0.996
		C130.211,13.497,115.811,0,98.941,0C88.82,0,78.77,4.919,72.056,13.16l-0.675,0.825l-1-0.372c-1.949-0.732-4.709-1.151-7.578-1.151
		c-9.628,0-16.889,7.128-16.889,16.579v1.217l-0.748,0.388c-7.407,4.442-12.023,12.784-12.023,21.757
		c0,14.125,10.791,25.614,24.056,25.614h32.018v15.435H25.421c-1.062,0-1.624,0.566-1.624,1.633v18.19H5.795
		c-3.356,0-5.795,2.438-5.795,5.795v57.942c0,3.355,2.438,5.791,5.795,5.791h39.251c3.295,0,5.753-2.268,6.117-5.641l-0.012-58.093
		c0-3.628-2.946-5.795-5.791-5.795H27.049V96.708h62.167v16.567H71.215c-3.625,0-5.791,2.946-5.791,5.795v57.942
		c0,3.623,2.945,5.791,5.791,5.791h39.254c3.291,0,5.748-2.268,6.113-5.641l-0.012-58.093c0-3.628-2.946-5.795-5.791-5.795H92.468
		V96.708h62.167v16.567h-18.002c-3.624,0-5.791,2.946-5.791,5.795v57.942c0,3.623,2.946,5.791,5.791,5.791h39.255
		c3.291,0,5.749-2.268,6.112-5.641L181.988,119.07z M45.36,116.252c1.089,0,2.813,0.764,2.813,2.817L48.193,177
		c-0.189,1.736-1.422,2.825-3.147,2.825H5.795c-1.736,0-2.817-1.077-2.817-2.813V119.07c0-1.737,1.081-2.817,2.817-2.817H45.36z
		 M110.779,116.252c1.089,0,2.813,0.764,2.813,2.817l0.02,57.931c-0.189,1.736-1.423,2.825-3.144,2.825H71.215
		c-1.09,0-2.814-0.764-2.814-2.813V119.07c0-1.089,0.764-2.817,2.814-2.817H110.779z M57.198,74.761
		c-11.47,0-20.804-10.032-20.804-22.358c0-8.873,4.512-16.435,11.775-19.738l0.996-0.496v-3.128c0-7.722,5.737-13.327,13.637-13.327
		c7.69,0,13.951,6.26,13.951,13.951c0,1.062,0.562,1.624,1.624,1.624c1.05,0,1.628-0.578,1.628-1.624
		c0-4.938-1.938-9.442-5.458-12.687l-1-0.926l0.833-1.074c5.71-7.423,15.001-12.036,24.25-12.036
		c15.176,0,27.916,11.59,29.638,26.963l0.217,1.892l-1.892-0.248c-3.124-0.419-5.811-0.45-7.768-0.108
		c-0.431,0.019-0.687,0.143-0.915,0.422c-0.303,0.368-0.453,0.872-0.376,1.248c0.023,0.868,0.965,1.454,1.675,1.326
		c0.62-0.066,1.174-0.093,1.849-0.093c2.372,0,5.598,0.341,9.59,1.02l0.364-0.023c0.147,0,0.303-0.035,0.462-0.097l0.526-0.202
		l0.523,0.194c7.636,2.791,12.765,10.695,12.765,19.66c0,11.327-8.141,19.866-18.932,19.866H57.198z M175.888,179.826h-39.255
		c-1.089,0-2.813-0.764-2.813-2.813V119.07c0-1.089,0.764-2.817,2.813-2.817h39.564c1.09,0,2.814,0.764,2.814,2.817l0.02,57.931
		C178.842,178.737,177.608,179.826,175.888,179.826z"/>
	<path fill="#E97527" d="M90.844,136.571c-1.33,0-2.124,0.791-2.124,2.121c0,1.332,0.794,2.127,2.124,2.127
		c1.329,0,2.12-0.795,2.12-2.127C92.964,137.362,92.173,136.571,90.844,136.571z"/>
	<path fill="#E97527" d="M84.61,127.225c-1.329,0-2.124,0.795-2.124,2.125c0,1.329,0.795,2.119,2.124,2.119
		c1.33,0,2.124-0.79,2.124-2.119C86.734,128.02,85.94,127.225,84.61,127.225z"/>
	<path fill="#E97527" d="M97.068,127.225c-1.329,0-2.124,0.795-2.124,2.125c0,1.329,0.795,2.119,2.124,2.119
		c1.33,0,2.125-0.79,2.125-2.119C99.193,128.02,98.398,127.225,97.068,127.225z"/>
	<path fill="#E97527" d="M168.725,145.917c-1.33,0-2.124,0.795-2.124,2.124s0.794,2.12,2.124,2.12c1.329,0,2.12-0.791,2.12-2.12
		S170.054,145.917,168.725,145.917z"/>
	<path fill="#E97527" d="M103.302,152.145H78.378c-1.33,0-2.12,0.795-2.12,2.125c0,1.329,0.79,2.12,2.12,2.12h24.924
		c1.329,0,2.124-0.791,2.124-2.12C105.426,152.94,104.631,152.145,103.302,152.145z"/>
	<path fill="#E97527" d="M168.725,164.608h-24.924c-1.33,0-2.125,0.795-2.125,2.124s0.795,2.12,2.125,2.12h24.924
		c1.329,0,2.12-0.791,2.12-2.12S170.054,164.608,168.725,164.608z"/>
	<path fill="#E97527" d="M25.421,145.917c-1.33,0-2.12,0.795-2.12,2.124s0.79,2.12,2.12,2.12c1.329,0,2.124-0.791,2.124-2.12
		S26.75,145.917,25.421,145.917z"/>
	<path fill="#E97527" d="M37.879,145.917c-1.33,0-2.12,0.795-2.12,2.124s0.79,2.12,2.12,2.12c1.329,0,2.124-0.791,2.124-2.12
		S39.208,145.917,37.879,145.917z"/>
	<path fill="#2A97EA" d="M168.725,127.225h-24.924c-1.33,0-2.125,0.795-2.125,2.125c0,1.329,0.795,2.119,2.125,2.119h24.924
		c1.329,0,2.12-0.79,2.12-2.119C170.845,128.02,170.054,127.225,168.725,127.225z"/>
	<path fill="#2A97EA" d="M103.302,164.608h-9.346c-1.329,0-2.12,0.795-2.12,2.124s0.791,2.12,2.12,2.12h9.346
		c1.329,0,2.124-0.791,2.124-2.12S104.631,164.608,103.302,164.608z"/>
	<path fill="#2A97EA" d="M156.259,145.917c-1.33,0-2.12,0.795-2.12,2.124s0.79,2.12,2.12,2.12c1.329,0,2.124-0.791,2.124-2.12
		S157.588,145.917,156.259,145.917z"/>
	<path fill="#2A97EA" d="M12.963,150.161c1.329,0,2.12-0.791,2.12-2.12s-0.791-2.124-2.12-2.124c-1.33,0-2.125,0.795-2.125,2.124
		S11.633,150.161,12.963,150.161z"/>
	<path fill="#2A97EA" d="M37.883,164.608h-24.92c-1.33,0-2.125,0.795-2.125,2.124s0.795,2.12,2.125,2.12h24.92
		c1.329,0,2.12-0.791,2.12-2.12S39.212,164.608,37.883,164.608z"/>
	<path fill="#2A97EA" d="M78.378,136.571c-1.33,0-2.12,0.791-2.12,2.121c0,1.332,0.79,2.127,2.12,2.127
		c1.329,0,2.124-0.795,2.124-2.127C80.502,137.362,79.707,136.571,78.378,136.571z"/>
	<g>
		<path fill="#2A97EA" d="M37.883,127.225h-24.92c-1.33,0-2.125,0.795-2.125,2.125c0,1.329,0.795,2.119,2.125,2.119h24.92
			c1.329,0,2.12-0.79,2.12-2.119C40.003,128.02,39.212,127.225,37.883,127.225z"/>
		<path fill="#2A97EA" d="M103.302,136.571c-1.329,0-2.124,0.791-2.124,2.121c0,1.332,0.795,2.127,2.124,2.127
			s2.124-0.795,2.124-2.127C105.426,137.385,104.611,136.571,103.302,136.571z"/>
		<path fill="#2A97EA" d="M143.801,145.917c-1.33,0-2.125,0.795-2.125,2.124s0.795,2.12,2.125,2.12c1.329,0,2.124-0.791,2.124-2.12
			S145.13,145.917,143.801,145.917z"/>
		<path fill="#2A97EA" d="M81.494,164.608h-3.116c-1.33,0-2.12,0.795-2.12,2.124s0.79,2.12,2.12,2.12h3.116
			c1.329,0,2.124-0.791,2.124-2.12S82.823,164.608,81.494,164.608z"/>
	</g>
</g>
</svg>
