<?xml version="1.0" encoding="utf-8"?>
<!-- Generator: Adobe Illustrator 16.0.0, SVG Export Plug-In . SVG Version: 6.00 Build 0)  -->
<!DOCTYPE svg PUBLIC "-//W3C//DTD SVG 1.1//EN" "http://www.w3.org/Graphics/SVG/1.1/DTD/svg11.dtd">
<svg version="1.1" id="Шар_1" xmlns="http://www.w3.org/2000/svg" xmlns:xlink="http://www.w3.org/1999/xlink" x="0px" y="0px"
	 width="12.001px" height="10.931px" viewBox="0 0 12.001 10.931" enable-background="new 0 0 12.001 10.931" xml:space="preserve">
<path fill="#3C3C3B" d="M11.829,5.037L6.947,0.155c-0.207-0.208-0.637-0.207-0.845,0c-0.11,0.11-0.171,0.26-0.171,0.422
	S5.992,0.89,6.103,1l3.854,3.855H0.604C0.271,4.855,0,5.126,0,5.459s0.271,0.604,0.604,0.604h9.353L6.103,9.918
	c-0.229,0.229-0.229,0.616,0,0.846c0.224,0.223,0.621,0.223,0.845,0l4.882-4.882C12.058,5.653,12.058,5.266,11.829,5.037z"/>
</svg>
