<?xml version="1.0" encoding="utf-8"?>
<!-- Generator: Adobe Illustrator 16.0.0, SVG Export Plug-In . SVG Version: 6.00 Build 0)  -->
<!DOCTYPE svg PUBLIC "-//W3C//DTD SVG 1.1//EN" "http://www.w3.org/Graphics/SVG/1.1/DTD/svg11.dtd">
<svg version="1.1" id="Шар_1" xmlns="http://www.w3.org/2000/svg" xmlns:xlink="http://www.w3.org/1999/xlink" x="0px" y="0px"
	 width="12px" height="10.932px" viewBox="0 0 12 10.932" enable-background="new 0 0 12 10.932" xml:space="preserve">
<path fill="#3C3C3B" d="M0.171,5.894l4.882,4.881c0.207,0.208,0.637,0.207,0.845,0c0.11-0.11,0.171-0.26,0.171-0.422
	s-0.061-0.312-0.171-0.423L2.043,6.076h9.353C11.729,6.076,12,5.805,12,5.472s-0.271-0.604-0.604-0.604H2.043l3.854-3.854
	c0.229-0.229,0.229-0.616,0-0.845c-0.224-0.224-0.621-0.224-0.845,0L0.171,5.049C-0.057,5.278-0.057,5.666,0.171,5.894z"/>
</svg>
