<?xml version="1.0" encoding="utf-8"?>
<!-- Generator: Adobe Illustrator 16.0.0, SVG Export Plug-In . SVG Version: 6.00 Build 0)  -->
<!DOCTYPE svg PUBLIC "-//W3C//DTD SVG 1.1//EN" "http://www.w3.org/Graphics/SVG/1.1/DTD/svg11.dtd">
<svg version="1.1" id="Шар_1" xmlns="http://www.w3.org/2000/svg" xmlns:xlink="http://www.w3.org/1999/xlink" x="0px" y="0px"
	 width="11px" height="11.778px" viewBox="0 0 11 11.778" enable-background="new 0 0 11 11.778" xml:space="preserve">
<path d="M10.756,0.778H9.442V0.244C9.442,0.109,9.333,0,9.198,0H7.836C7.701,0,7.592,0.109,7.592,0.244v0.534H3.408V0.244
	C3.408,0.109,3.299,0,3.164,0H1.802C1.667,0,1.558,0.109,1.558,0.244v0.534H0.244C0.109,0.778,0,0.888,0,1.023v10.511
	c0,0.135,0.109,0.244,0.244,0.244h10.512c0.135,0,0.244-0.109,0.244-0.244V1.023C11,0.888,10.891,0.778,10.756,0.778z M10.511,3.409
	v7.881H0.489V3.409H10.511z M2.046,1.557V0.489H2.92v1.068H2.046z M8.08,1.557V0.489h0.874v1.068H8.08z M1.802,2.046h1.362
	c0.135,0,0.244-0.11,0.244-0.245V1.267h4.184v0.534c0,0.135,0.109,0.245,0.244,0.245h1.362c0.135,0,0.244-0.11,0.244-0.245V1.267
	h1.068v1.652H0.489V1.267h1.068v0.534C1.558,1.936,1.667,2.046,1.802,2.046z"/>
</svg>
