<?xml version="1.0" encoding="utf-8"?>
<!-- Generator: Adobe Illustrator 16.0.0, SVG Export Plug-In . SVG Version: 6.00 Build 0)  -->
<!DOCTYPE svg PUBLIC "-//W3C//DTD SVG 1.1//EN" "http://www.w3.org/Graphics/SVG/1.1/DTD/svg11.dtd">
<svg version="1.1" id="Шар_1" xmlns="http://www.w3.org/2000/svg" xmlns:xlink="http://www.w3.org/1999/xlink" x="0px" y="0px"
	 width="21px" height="17.058px" viewBox="0 0 21 17.058" enable-background="new 0 0 21 17.058" xml:space="preserve">
<g>
	<g>
		<path fill="#1D1D1B" d="M21,2.019c-0.772,0.342-1.603,0.574-2.474,0.678c0.89-0.533,1.57-1.377,1.894-2.381
			c-0.835,0.494-1.756,0.852-2.737,1.046C16.896,0.522,15.778,0,14.538,0c-2.379,0-4.308,1.929-4.308,4.307
			c0,0.337,0.038,0.667,0.111,0.981c-3.58-0.18-6.754-1.895-8.878-4.501C1.092,1.423,0.881,2.163,0.881,2.953
			c0,1.495,0.761,2.813,1.916,3.584c-0.706-0.023-1.37-0.217-1.951-0.54v0.054c0,2.086,1.485,3.827,3.454,4.224
			c-0.36,0.098-0.741,0.151-1.135,0.151c-0.277,0-0.547-0.027-0.811-0.08c0.548,1.712,2.139,2.958,4.023,2.991
			c-1.474,1.156-3.332,1.842-5.351,1.842c-0.348,0-0.69-0.021-1.027-0.059c1.907,1.225,4.171,1.938,6.603,1.938
			c7.926,0,12.258-6.564,12.258-12.256l-0.015-0.558C19.692,3.64,20.424,2.881,21,2.019z"/>
	</g>
</g>
</svg>
