<?xml version="1.0" encoding="utf-8"?>
<!-- Generator: Adobe Illustrator 16.0.0, SVG Export Plug-In . SVG Version: 6.00 Build 0)  -->
<!DOCTYPE svg PUBLIC "-//W3C//DTD SVG 1.1//EN" "http://www.w3.org/Graphics/SVG/1.1/DTD/svg11.dtd">
<svg version="1.1" id="Шар_1" xmlns="http://www.w3.org/2000/svg" xmlns:xlink="http://www.w3.org/1999/xlink" x="0px" y="0px"
	 width="72px" height="72px" viewBox="0 0 72 72" enable-background="new 0 0 72 72" xml:space="preserve">
<g transform="translate(1 1)">
	<g>
		<g>
			<path d="M71,2.179C71,0.366,69.634-1,67.821-1H14.335c-1.812,0-3.179,1.366-3.179,3.179v35.72H-0.252
				c-0.469,0-0.748,0.28-0.748,0.747v25.528C-1,67.939,2.062,71,5.826,71h58.349C67.938,71,71,67.939,71,64.174V2.179z
				 M5.826,69.504c-2.939,0-5.33-2.392-5.33-5.33V39.395h10.66v24.779C11.156,67.113,8.766,69.504,5.826,69.504z M69.504,64.174
				c0,2.938-2.391,5.33-5.329,5.33H10.31l0.625-0.765c0.217-0.265,0.423-0.553,0.611-0.857c0.663-1.02,1.041-2.188,1.098-3.385
				c0.005-0.107,0.008-0.215,0.008-0.324V2.179c0-0.991,0.692-1.683,1.684-1.683h53.486c0.991,0,1.683,0.692,1.683,1.683V64.174z"/>
			<path d="M64.175,11.156H17.981c-0.468,0-0.747,0.279-0.747,0.748v18.233c0,0.468,0.279,0.748,0.747,0.748h46.193
				c0.468,0,0.747-0.28,0.747-0.748V11.904C64.922,11.435,64.643,11.156,64.175,11.156z M63.427,29.39H18.73V12.651h44.696V29.39z"
				/>
			<path d="M64.175,5.078H17.981c-0.468,0-0.747,0.28-0.747,0.748s0.279,0.748,0.747,0.748h46.193c0.468,0,0.747-0.28,0.747-0.748
				S64.643,5.078,64.175,5.078z"/>
			<path d="M25.275,36.683h-7.294c-0.468,0-0.747,0.279-0.747,0.748v7.293c0,0.469,0.279,0.748,0.747,0.748h7.294
				c0.468,0,0.748-0.279,0.748-0.748v-7.293C26.023,36.962,25.743,36.683,25.275,36.683z M24.527,43.977H18.73v-5.798h5.797V43.977z
				"/>
			<path d="M25.275,50.054h-7.294c-0.468,0-0.747,0.28-0.747,0.749v7.293c0,0.469,0.279,0.748,0.747,0.748h7.294
				c0.468,0,0.748-0.279,0.748-0.748v-7.293C26.023,50.334,25.743,50.054,25.275,50.054z M24.527,57.349H18.73V51.55h5.797V57.349z"
				/>
			<path d="M64.175,36.683H31.354c-0.468,0-0.748,0.279-0.748,0.748c0,0.468,0.28,0.748,0.748,0.748h32.821
				c0.468,0,0.747-0.28,0.747-0.748C64.922,36.962,64.643,36.683,64.175,36.683z"/>
			<path d="M43.509,42.761H31.354c-0.468,0-0.748,0.28-0.748,0.748c0,0.469,0.28,0.748,0.748,0.748h12.155
				c0.468,0,0.748-0.279,0.748-0.748C44.257,43.042,43.977,42.761,43.509,42.761z"/>
			<path d="M64.175,50.054H31.354c-0.468,0-0.748,0.28-0.748,0.748c0,0.469,0.28,0.748,0.748,0.748h32.821
				c0.468,0,0.747-0.279,0.747-0.748C64.922,50.334,64.643,50.054,64.175,50.054z"/>
			<path d="M43.509,56.132H31.354c-0.468,0-0.748,0.28-0.748,0.748c0,0.469,0.28,0.748,0.748,0.748h12.155
				c0.468,0,0.748-0.279,0.748-0.748C44.257,56.413,43.977,56.132,43.509,56.132z"/>
			<path d="M64.175,63.426H17.981c-0.468,0-0.747,0.28-0.747,0.748s0.279,0.748,0.747,0.748h46.193c0.468,0,0.747-0.28,0.747-0.748
				S64.643,63.426,64.175,63.426z"/>
		</g>
	</g>
</g>
</svg>
