<?xml version="1.0" encoding="utf-8"?>
<!-- Generator: Adobe Illustrator 16.0.0, SVG Export Plug-In . SVG Version: 6.00 Build 0)  -->
<!DOCTYPE svg PUBLIC "-//W3C//DTD SVG 1.1//EN" "http://www.w3.org/Graphics/SVG/1.1/DTD/svg11.dtd">
<svg version="1.1" id="Шар_1" xmlns="http://www.w3.org/2000/svg" xmlns:xlink="http://www.w3.org/1999/xlink" x="0px" y="0px"
	 width="67px" height="67.1px" viewBox="0 0 67 67.1" enable-background="new 0 0 67 67.1" xml:space="preserve">
<g>
	<g>
		<path d="M58.804,61.242l0.208-0.202c0.747-0.711,1.338-1.299,1.866-1.851c1.276-1.328,1.95-2.856,1.95-4.419
			c0-1.57-0.684-3.077-1.978-4.357L52.868,42.4c-1.257-1.308-2.735-1.993-4.287-1.993c-1.548,0-3.051,0.686-4.347,1.98l-5.059,5.042
			l-0.577-0.311c-0.242-0.13-0.484-0.255-0.723-0.377l-0.386-0.198c-0.533-0.268-1.043-0.522-1.497-0.805
			c-4.395-2.791-8.377-6.418-12.182-11.094c-1.871-2.365-3.116-4.332-4.044-6.385l-0.264-0.584l0.472-0.432
			c1.06-0.969,2.059-1.983,3.025-2.963l0.314-0.32c0.206-0.206,0.408-0.411,0.609-0.617c0.205-0.209,0.41-0.418,0.616-0.623
			c1.328-1.329,2.03-2.852,2.03-4.404c0-1.553-0.702-3.076-2.03-4.404l-3.968-3.968c-0.454-0.453-0.923-0.922-1.372-1.401
			c-0.835-0.863-1.746-1.791-2.688-2.659c-1.266-1.252-2.734-1.903-4.27-1.903c-1.545,0-3.042,0.654-4.33,1.891l-4.955,5
			c-1.713,1.712-2.688,3.803-2.902,6.214c-0.332,4.051,0.873,7.875,1.81,10.4c2.327,6.277,5.812,12.088,10.97,18.289
			c6.289,7.509,13.854,13.433,22.481,17.604c3.285,1.557,7.677,3.387,12.463,3.692c0.276,0.013,0.582,0.027,0.859,0.027
			c3.084,0,5.674-1.103,7.697-3.276c0.016-0.02,0.03-0.038,0.044-0.054l0.021-0.026C57.131,62.859,57.944,62.073,58.804,61.242z
			 M54.792,62.334c-1.681,1.8-3.622,2.623-6.139,2.623c-0.236,0-0.49-0.001-0.728-0.017c-4.473-0.287-8.581-2.014-11.659-3.485
			c-8.352-4.044-15.669-9.773-21.749-17.032C9.503,38.38,6.13,32.76,3.901,26.735c-1.394-3.73-1.912-6.654-1.68-9.478
			c0.164-1.919,0.903-3.511,2.261-4.869l4.957-4.956c1.819-1.709,3.917-1.678,5.58-0.015l0.044,0.043
			c0.84,0.784,1.66,1.614,2.626,2.612c0.228,0.234,0.458,0.469,0.69,0.705c0.229,0.232,0.46,0.466,0.69,0.704l3.958,3.958
			c1.883,1.883,1.883,3.873,0,5.755l-0.42,0.423c-0.279,0.283-0.557,0.563-0.841,0.837c-1.288,1.319-2.413,2.438-3.654,3.553
			l-0.056,0.056c-0.91,0.91-0.755,1.72-0.538,2.408l0.029,0.087c0.982,2.372,2.382,4.653,4.535,7.39l0.032,0.037
			c3.959,4.877,8.11,8.656,12.693,11.555c0.561,0.355,1.145,0.647,1.71,0.93c0.506,0.254,1.029,0.515,1.484,0.795
			c0.038,0.021,0.076,0.043,0.113,0.066c0.385,0.195,0.717,0.281,1.06,0.281c0.841,0,1.382-0.541,1.585-0.744l4.971-4.971
			c0.883-0.883,1.857-1.35,2.819-1.35c1.319,0,2.286,0.846,2.746,1.35l8.01,8.009c1.37,1.356,1.729,2.839,1.075,4.29h0.447
			l-1.499,1.5c-0.467,0.502-0.945,0.969-1.453,1.461l-0.336,0.328C56.631,60.355,55.673,61.296,54.792,62.334z"/>
		<path d="M54.526,30.203c-0.753-4.419-2.845-8.451-6.046-11.653c-3.203-3.202-7.235-5.293-11.661-6.047
			c-0.055-0.009-0.115-0.014-0.176-0.014c-0.529,0-0.98,0.377-1.073,0.896c-0.052,0.29,0.013,0.581,0.182,0.819
			c0.161,0.228,0.4,0.377,0.675,0.421c3.98,0.668,7.614,2.553,10.512,5.451c2.879,2.879,4.764,6.511,5.449,10.504
			c0.087,0.52,0.533,0.895,1.062,0.895c0.065,0,0.122-0.01,0.186-0.018C54.227,31.363,54.623,30.8,54.526,30.203z"/>
		<path d="M66.803,30.441c0.166-0.232,0.23-0.513,0.181-0.791c-1.264-7.413-4.763-14.159-10.118-19.516
			C51.51,4.779,44.763,1.28,37.357,0.017C37.29,0.005,37.229,0,37.168,0c-0.514,0-0.953,0.378-1.047,0.9
			c-0.095,0.586,0.298,1.137,0.896,1.243c6.938,1.176,13.279,4.462,18.335,9.503c5.039,5.04,8.326,11.382,9.506,18.341
			c0.086,0.518,0.532,0.892,1.062,0.892c0.066,0,0.126-0.01,0.191-0.018C66.397,30.819,66.638,30.67,66.803,30.441z"/>
	</g>
</g>
</svg>
