<?xml version="1.0" encoding="utf-8"?>
<!-- Generator: Adobe Illustrator 16.0.0, SVG Export Plug-In . SVG Version: 6.00 Build 0)  -->
<!DOCTYPE svg PUBLIC "-//W3C//DTD SVG 1.1//EN" "http://www.w3.org/Graphics/SVG/1.1/DTD/svg11.dtd">
<svg version="1.1" id="Шар_1" xmlns="http://www.w3.org/2000/svg" xmlns:xlink="http://www.w3.org/1999/xlink" x="0px" y="0px"
	 width="16px" height="14.574px" viewBox="0 0 16 14.574" enable-background="new 0 0 16 14.574" xml:space="preserve">
<path fill="#3C3C3B" d="M15.771,6.716L9.263,0.208c-0.275-0.277-0.849-0.276-1.126,0C7.989,0.355,7.909,0.555,7.909,0.771
	c0,0.216,0.08,0.416,0.228,0.563l5.139,5.14H0.807C0.362,6.474,0,6.835,0,7.279s0.362,0.806,0.807,0.806h12.469l-5.139,5.139
	c-0.306,0.305-0.306,0.821,0,1.127c0.298,0.298,0.828,0.298,1.126,0l6.509-6.509C16.076,7.537,16.076,7.021,15.771,6.716z"/>
</svg>
