<?xml version="1.0" encoding="utf-8"?>
<!-- Generator: Adobe Illustrator 16.0.0, SVG Export Plug-In . SVG Version: 6.00 Build 0)  -->
<!DOCTYPE svg PUBLIC "-//W3C//DTD SVG 1.1//EN" "http://www.w3.org/Graphics/SVG/1.1/DTD/svg11.dtd">
<svg version="1.1" id="Шар_1" xmlns="http://www.w3.org/2000/svg" xmlns:xlink="http://www.w3.org/1999/xlink" x="0px" y="0px"
	 width="17px" height="17px" viewBox="0 0 17 17" enable-background="new 0 0 17 17" xml:space="preserve">
<g>
	<path d="M16.792,15.792l-4.087-4.087c1.013-1.234,1.624-2.817,1.624-4.541C14.329,3.209,11.119,0,7.164,0C3.206,0,0,3.209,0,7.164
		s3.206,7.164,7.164,7.164c1.725,0,3.304-0.607,4.538-1.62l4.087,4.084c0.278,0.277,0.726,0.277,1.003,0
		C17.069,16.518,17.069,16.066,16.792,15.792z M7.164,12.902c-3.167,0-5.741-2.574-5.741-5.738s2.574-5.742,5.741-5.742
		c3.164,0,5.742,2.578,5.742,5.742S10.328,12.902,7.164,12.902z"/>
</g>
</svg>
