<?xml version="1.0" encoding="utf-8"?>
<!-- Generator: Adobe Illustrator 16.0.0, SVG Export Plug-In . SVG Version: 6.00 Build 0)  -->
<!DOCTYPE svg PUBLIC "-//W3C//DTD SVG 1.1//EN" "http://www.w3.org/Graphics/SVG/1.1/DTD/svg11.dtd">
<svg version="1.1" id="Шар_1" xmlns="http://www.w3.org/2000/svg" xmlns:xlink="http://www.w3.org/1999/xlink" x="0px" y="0px"
	 width="12px" height="10.931px" viewBox="0 0 12 10.931" enable-background="new 0 0 12 10.931" xml:space="preserve">
<path d="M0.172,5.894l4.882,4.882c0.207,0.207,0.637,0.207,0.845-0.001c0.11-0.109,0.171-0.26,0.171-0.422S6.009,10.04,5.898,9.931
	L2.044,6.075h9.352C11.729,6.075,12,5.805,12,5.472c0-0.333-0.271-0.604-0.604-0.604H2.044l3.854-3.854
	c0.229-0.229,0.229-0.616,0-0.845c-0.224-0.223-0.622-0.223-0.845,0L0.172,5.049C-0.058,5.278-0.058,5.665,0.172,5.894z"/>
</svg>
