<?xml version="1.0" encoding="utf-8"?>
<!-- Generator: Adobe Illustrator 16.0.0, SVG Export Plug-In . SVG Version: 6.00 Build 0)  -->
<!DOCTYPE svg PUBLIC "-//W3C//DTD SVG 1.1//EN" "http://www.w3.org/Graphics/SVG/1.1/DTD/svg11.dtd">
<svg version="1.1" id="Шар_1" xmlns="http://www.w3.org/2000/svg" xmlns:xlink="http://www.w3.org/1999/xlink" x="0px" y="0px"
	 width="16.001px" height="14.575px" viewBox="0 0 16.001 14.575" enable-background="new 0 0 16.001 14.575" xml:space="preserve">
<path fill="#000100" d="M15.771,6.716L9.263,0.207c-0.276-0.276-0.85-0.276-1.127,0C7.989,0.354,7.908,0.554,7.908,0.77
	c0,0.216,0.081,0.417,0.228,0.563l5.14,5.14H0.806C0.361,6.473,0,6.834,0,7.279s0.361,0.806,0.806,0.806h12.47l-5.14,5.14
	c-0.305,0.304-0.305,0.821,0,1.127c0.298,0.298,0.829,0.298,1.127,0l6.508-6.509C16.077,7.537,16.077,7.021,15.771,6.716z"/>
</svg>
