<?xml version="1.0" encoding="utf-8"?>
<!-- Generator: Adobe Illustrator 16.0.0, SVG Export Plug-In . SVG Version: 6.00 Build 0)  -->
<!DOCTYPE svg PUBLIC "-//W3C//DTD SVG 1.1//EN" "http://www.w3.org/Graphics/SVG/1.1/DTD/svg11.dtd">
<svg version="1.1" id="Шар_1" xmlns="http://www.w3.org/2000/svg" xmlns:xlink="http://www.w3.org/1999/xlink" x="0px" y="0px"
	 width="30px" height="31.095px" viewBox="0 0 30 31.095" enable-background="new 0 0 30 31.095" xml:space="preserve">
<g>
	<path fill="#000100" d="M9.599,21.663c3.704-0.715,10.982-2.42,14.047-5.254c-0.285-0.4-3.985-2.309-3.985-2.309s4.405,0,6.188,0
		C28.891,13.681,30,0,30,0S17.353,6.863,13.995,11.147c-3.356,4.285-6.647,10.908-6.647,10.908H7.35C3.191,26.476,0,30,0,30
		l3.499-1.86L9.599,21.663z M28.493,2.292c-0.139,1.141-0.336,2.57-0.602,4.024c-0.987,5.413-2.024,6.387-2.217,6.526H19.66
		c-0.581,0-1.087,0.397-1.223,0.961c-0.137,0.564,0.13,1.149,0.646,1.416c0.785,0.406,1.658,0.874,2.359,1.269
		c-2.755,1.697-7.154,2.886-10.342,3.581L27.048,3.135C27.571,2.827,28.061,2.542,28.493,2.292z M14.985,11.923
		c1.814-2.315,6.652-5.515,10.469-7.834C22.563,6.737,18.686,10.374,15,14.101c-1.441,1.457-2.911,2.974-4.341,4.468
		C11.861,16.461,13.422,13.919,14.985,11.923z M17.005,26.512c3.847,0.428,7.613,1.309,11.259,2.51
		c-1.887-0.354-3.768-0.697-5.664-0.938c-1.89-0.268-3.786-0.473-5.678-0.593c-1.64-0.086-3.277-0.121-4.896,0.002
		c0.345,0.062,0.692,0.123,1.038,0.186c0.942,0.176,1.889,0.351,2.846,0.572c0.479,0.117,0.954,0.23,1.464,0.43
		c0.129,0.053,0.261,0.109,0.409,0.197c0.075,0.047,0.156,0.098,0.251,0.186c0.086,0.091,0.227,0.219,0.275,0.516
		c0.04,0.309-0.125,0.548-0.222,0.646c-0.108,0.111-0.196,0.164-0.276,0.213l-0.126,0.066l-0.098,0.045l-0.205,0.078
		c-1.061,0.336-2.02,0.369-3.002,0.433c-0.974,0.048-1.941,0.041-2.905,0.015C7.618,30.972,3.798,30.565,0.001,30
		c1.92,0.026,3.833,0.099,5.748,0.1c1.912,0.028,3.824,0.036,5.728-0.003c0.951-0.025,1.899-0.066,2.837-0.135
		c0.727-0.062,1.482-0.139,2.146-0.302c-0.268-0.077-0.545-0.148-0.826-0.212c-0.912-0.203-1.851-0.367-2.793-0.533
		c-0.944-0.178-1.881-0.337-2.857-0.582c-0.258-0.074-0.475-0.115-0.828-0.297c-0.053-0.032-0.102-0.059-0.182-0.13
		c-0.062-0.067-0.22-0.183-0.244-0.515c-0.006-0.16,0.057-0.307,0.114-0.389c0.056-0.086,0.116-0.139,0.154-0.171
		c0.092-0.071,0.146-0.095,0.202-0.124c0.201-0.09,0.33-0.115,0.471-0.147c0.533-0.108,1.004-0.155,1.502-0.195
		C13.129,26.219,15.083,26.293,17.005,26.512z"/>
</g>
</svg>
