<?xml version="1.0" encoding="utf-8"?>
<!-- Generator: Adobe Illustrator 16.0.0, SVG Export Plug-In . SVG Version: 6.00 Build 0)  -->
<!DOCTYPE svg PUBLIC "-//W3C//DTD SVG 1.1//EN" "http://www.w3.org/Graphics/SVG/1.1/DTD/svg11.dtd">
<svg version="1.1" id="Шар_1" xmlns="http://www.w3.org/2000/svg" xmlns:xlink="http://www.w3.org/1999/xlink" x="0px" y="0px"
	 width="16px" height="12.083px" viewBox="0 0 16 12.083" enable-background="new 0 0 16 12.083" xml:space="preserve">
<path fill="#252525" d="M14.621,0H1.38C0.619,0,0,0.62,0,1.38v9.324c0,0.762,0.619,1.379,1.38,1.379h13.241
	c0.76,0,1.379-0.617,1.379-1.379V1.38C16,0.62,15.381,0,14.621,0z M1.239,2.057l6.44,5.506l0,0c0.005,0.006,0.011,0.01,0.018,0.015
	C7.7,7.579,7.702,7.583,7.706,7.585l0.018,0.012c0.005,0.006,0.014,0.011,0.023,0.018l0.106,0.055l0.016,0.003
	c0.007,0.003,0.017,0.005,0.026,0.009l0.027,0.008h0.004C7.933,7.69,7.939,7.69,7.947,7.692l0.019,0.006h0.01
	C7.978,7.7,7.98,7.7,7.98,7.7l0.019,0.004l0.04,0.002C8.068,7.71,8.093,7.712,8.138,7.704c0.021,0,0.039-0.003,0.058-0.006
	l0.036-0.011l0.012-0.002l0.033-0.009C8.283,7.675,8.29,7.672,8.298,7.669l0.108-0.051l0.017-0.012
	c0.004-0.004,0.009-0.006,0.014-0.01l0.018-0.012C8.456,7.583,8.458,7.581,8.46,7.579c0.006-0.003,0.014-0.01,0.021-0.017
	l6.28-5.365v8.506c0,0.077-0.064,0.141-0.141,0.141H1.38c-0.077,0-0.141-0.063-0.141-0.141V2.057z M8.083,6.279l-5.895-5.04h11.787
	L8.083,6.279z"/>
</svg>
