<?xml version="1.0" encoding="utf-8"?>
<!-- Generator: Adobe Illustrator 16.0.0, SVG Export Plug-In . SVG Version: 6.00 Build 0)  -->
<!DOCTYPE svg PUBLIC "-//W3C//DTD SVG 1.1//EN" "http://www.w3.org/Graphics/SVG/1.1/DTD/svg11.dtd">
<svg version="1.1" id="Шар_1" xmlns="http://www.w3.org/2000/svg" xmlns:xlink="http://www.w3.org/1999/xlink" x="0px" y="0px"
	 width="12px" height="10.931px" viewBox="0 0 12 10.931" enable-background="new 0 0 12 10.931" xml:space="preserve">
<path d="M11.828,5.037L6.946,0.155c-0.207-0.207-0.637-0.207-0.845,0c-0.11,0.11-0.171,0.26-0.171,0.422S5.991,0.89,6.102,1
	l3.854,3.855H0.604C0.271,4.855,0,5.126,0,5.459s0.271,0.604,0.604,0.604h9.352L6.102,9.918c-0.229,0.229-0.229,0.616,0,0.845
	c0.224,0.224,0.622,0.224,0.845,0l4.882-4.881C12.058,5.652,12.058,5.266,11.828,5.037z"/>
</svg>
