<?xml version="1.0" encoding="utf-8"?>
<!-- Generator: Adobe Illustrator 16.0.0, SVG Export Plug-In . SVG Version: 6.00 Build 0)  -->
<!DOCTYPE svg PUBLIC "-//W3C//DTD SVG 1.1//EN" "http://www.w3.org/Graphics/SVG/1.1/DTD/svg11.dtd">
<svg version="1.1" id="Шар_1" xmlns="http://www.w3.org/2000/svg" xmlns:xlink="http://www.w3.org/1999/xlink" x="0px" y="0px"
	 width="25px" height="25.077px" viewBox="0 0 25 25.077" enable-background="new 0 0 25 25.077" xml:space="preserve">
<g>
	<path d="M16.829,14.807c-0.18-0.18-0.488-0.18-0.668,0l-3.18,3.18V0.476C12.978,0.214,12.762,0,12.5,0
		c-0.261,0-0.471,0.213-0.471,0.476v17.511l-3.18-3.18c-0.09-0.09-0.21-0.141-0.334-0.141c-0.126,0-0.244,0.051-0.334,0.141
		c-0.185,0.184-0.185,0.483,0,0.668l3.987,3.986c0.091,0.092,0.207,0.14,0.336,0.14c0.126,0,0.248-0.051,0.337-0.14l3.987-3.986
		C17.013,15.29,17.013,14.99,16.829,14.807z"/>
	<path d="M24.524,24.126H0.476C0.214,24.126,0,24.34,0,24.602s0.214,0.476,0.476,0.476h24.049c0.262,0,0.476-0.214,0.476-0.476
		S24.786,24.126,24.524,24.126z"/>
</g>
</svg>
