<?xml version="1.0" encoding="utf-8"?>
<!-- Generator: Adobe Illustrator 16.0.0, SVG Export Plug-In . SVG Version: 6.00 Build 0)  -->
<!DOCTYPE svg PUBLIC "-//W3C//DTD SVG 1.1//EN" "http://www.w3.org/Graphics/SVG/1.1/DTD/svg11.dtd">
<svg version="1.1" id="Шар_1" xmlns="http://www.w3.org/2000/svg" xmlns:xlink="http://www.w3.org/1999/xlink" x="0px" y="0px"
	 width="109px" height="23.802px" viewBox="0 0 109 23.802" enable-background="new 0 0 109 23.802" xml:space="preserve">
<g>
	<path fill="#596693" d="M9.98,20.567c-0.202-0.484-0.469-1.1-0.802-1.846s-0.691-1.553-1.074-2.419
		c-0.384-0.866-0.791-1.759-1.225-2.677c-0.433-0.918-0.841-1.784-1.225-2.601c-0.383-0.817-0.741-1.547-1.074-2.193
		c-0.333-0.645-0.6-1.139-0.802-1.481c-0.223,2.379-0.402,4.956-0.544,7.727c-0.142,2.773-0.262,5.57-0.362,8.393H0
		c0.08-1.814,0.17-3.644,0.271-5.488c0.102-1.846,0.217-3.66,0.349-5.444c0.13-1.785,0.271-3.523,0.422-5.218
		c0.152-1.693,0.319-3.296,0.5-4.809h2.57c0.544,0.888,1.13,1.936,1.754,3.146c0.625,1.209,1.25,2.475,1.876,3.795
		c0.624,1.321,1.229,2.641,1.813,3.962c0.586,1.321,1.12,2.526,1.604,3.614c0.483-1.088,1.018-2.293,1.603-3.614
		s1.189-2.641,1.815-3.962c0.624-1.321,1.249-2.586,1.874-3.795c0.624-1.21,1.21-2.258,1.754-3.146h2.57
		c0.687,6.755,1.2,13.741,1.544,20.959h-2.873c-0.102-2.822-0.223-5.619-0.364-8.393c-0.142-2.771-0.321-5.348-0.544-7.727
		c-0.202,0.343-0.469,0.837-0.802,1.481c-0.332,0.646-0.69,1.376-1.073,2.193s-0.791,1.683-1.226,2.601
		c-0.433,0.918-0.841,1.811-1.225,2.677c-0.383,0.866-0.741,1.673-1.074,2.419c-0.331,0.746-0.6,1.361-0.801,1.846H9.98z"/>
	<path fill="#596693" d="M31.817,7.35c1.128,0,2.08,0.146,2.856,0.438c0.777,0.292,1.401,0.706,1.877,1.24
		c0.472,0.534,0.811,1.169,1.013,1.905c0.2,0.736,0.303,1.548,0.303,2.435v9.83c-0.243,0.041-0.58,0.096-1.014,0.166
		c-0.435,0.071-0.923,0.137-1.468,0.197s-1.133,0.115-1.769,0.166s-1.266,0.075-1.891,0.075c-0.889,0-1.704-0.091-2.45-0.272
		c-0.745-0.181-1.392-0.468-1.936-0.861c-0.545-0.393-0.968-0.912-1.27-1.558s-0.455-1.421-0.455-2.329
		c0-0.867,0.178-1.613,0.53-2.238s0.832-1.129,1.437-1.512s1.311-0.666,2.117-0.848c0.807-0.181,1.653-0.271,2.54-0.271
		c0.283,0,0.574,0.016,0.877,0.045c0.303,0.031,0.592,0.071,0.863,0.121c0.272,0.051,0.508,0.096,0.711,0.137
		c0.2,0.04,0.342,0.07,0.422,0.09v-0.786c0-0.464-0.05-0.923-0.149-1.376c-0.104-0.453-0.283-0.856-0.545-1.21
		c-0.264-0.353-0.621-0.635-1.074-0.847c-0.454-0.211-1.044-0.318-1.77-0.318c-0.929,0-1.739,0.066-2.435,0.197
		s-1.215,0.267-1.558,0.408l-0.333-2.329c0.362-0.161,0.968-0.317,1.814-0.469C29.91,7.425,30.829,7.35,31.817,7.35z M32.059,21.444
		c0.665,0,1.255-0.016,1.769-0.045c0.515-0.031,0.943-0.086,1.285-0.167v-4.688c-0.201-0.101-0.529-0.186-0.982-0.256
		c-0.453-0.071-1.003-0.107-1.647-0.107c-0.424,0-0.873,0.031-1.347,0.092s-0.906,0.187-1.301,0.378
		c-0.393,0.191-0.722,0.453-0.982,0.786c-0.263,0.332-0.395,0.771-0.395,1.316c0,1.008,0.323,1.709,0.969,2.102
		C30.071,21.247,30.948,21.444,32.059,21.444z"/>
	<path fill="#596693" d="M45.154,7.743h5.959v2.359h-5.959v7.258c0,0.787,0.06,1.438,0.183,1.951c0.12,0.515,0.302,0.918,0.544,1.21
		c0.241,0.292,0.544,0.499,0.907,0.62c0.362,0.121,0.786,0.182,1.269,0.182c0.849,0,1.528-0.096,2.044-0.287
		c0.513-0.191,0.871-0.328,1.072-0.408l0.546,2.328c-0.283,0.142-0.777,0.318-1.482,0.529c-0.707,0.212-1.513,0.317-2.421,0.317
		c-1.068,0-1.95-0.136-2.646-0.407c-0.697-0.273-1.255-0.681-1.68-1.226c-0.422-0.544-0.721-1.214-0.891-2.011
		c-0.173-0.797-0.259-1.72-0.259-2.768V3.357l2.813-0.484V7.743z"/>
	<path fill="#596693" d="M54.681,23.469V0.483L57.493,0v8.045c0.524-0.201,1.085-0.357,1.679-0.469
		c0.595-0.111,1.185-0.167,1.769-0.167c1.251,0,2.289,0.177,3.116,0.53c0.826,0.353,1.486,0.847,1.98,1.481
		c0.494,0.635,0.842,1.396,1.044,2.284c0.201,0.888,0.303,1.865,0.303,2.935v8.83h-2.812v-8.227c0-0.967-0.066-1.793-0.196-2.479
		c-0.132-0.687-0.348-1.241-0.65-1.664c-0.302-0.423-0.707-0.731-1.21-0.922C62.01,9.986,61.385,9.89,60.64,9.89
		c-0.303,0-0.615,0.02-0.938,0.061c-0.323,0.04-0.631,0.086-0.924,0.136c-0.292,0.051-0.554,0.105-0.786,0.167
		c-0.231,0.06-0.398,0.111-0.499,0.151v13.065H54.681z"/>
	<path fill="#E97527" d="M89.343,12.975c0,1.814-0.283,3.393-0.847,4.732c-0.566,1.342-1.363,2.451-2.391,3.328
		c-1.028,0.877-2.258,1.532-3.689,1.966c-1.433,0.434-3.005,0.649-4.719,0.649c-0.847,0-1.78-0.035-2.799-0.105
		c-1.018-0.07-1.94-0.207-2.767-0.408V2.812c0.826-0.201,1.749-0.337,2.767-0.408c1.019-0.071,1.952-0.106,2.799-0.106
		c1.714,0,3.286,0.217,4.719,0.65c1.432,0.434,2.661,1.089,3.689,1.966c1.027,0.877,1.824,1.986,2.391,3.327
		C89.06,9.583,89.343,11.16,89.343,12.975z M77.938,21.081c2.784,0,4.86-0.711,6.232-2.133c1.37-1.42,2.056-3.412,2.056-5.973
		c0-2.56-0.686-4.552-2.056-5.973c-1.372-1.421-3.448-2.133-6.232-2.133c-0.826,0-1.466,0.01-1.92,0.03
		C75.564,4.92,75.248,4.94,75.065,4.96v16.03c0.183,0.021,0.499,0.04,0.953,0.062C76.473,21.071,77.112,21.081,77.938,21.081z"/>
	<path fill="#E97527" d="M99.353,23.651c-0.425,0-0.883-0.01-1.377-0.029c-0.494-0.021-0.988-0.051-1.482-0.092
		c-0.494-0.039-0.982-0.09-1.466-0.15c-0.484-0.061-0.927-0.141-1.331-0.242V2.812c0.404-0.101,0.847-0.181,1.331-0.242
		c0.483-0.06,0.972-0.11,1.466-0.151c0.494-0.04,0.983-0.07,1.469-0.09c0.483-0.02,0.937-0.031,1.36-0.031
		c1.21,0,2.343,0.091,3.402,0.272c1.059,0.182,1.975,0.489,2.752,0.923c0.776,0.434,1.386,1.003,1.829,1.708
		c0.444,0.706,0.667,1.573,0.667,2.601c0,1.149-0.272,2.092-0.816,2.828c-0.546,0.736-1.271,1.286-2.18,1.648
		c1.23,0.363,2.209,0.938,2.935,1.725c0.727,0.786,1.089,1.896,1.089,3.327c0,2.097-0.771,3.674-2.312,4.733
		C105.144,23.122,102.699,23.651,99.353,23.651z M96.601,11.342h3.085c0.725,0,1.41-0.051,2.056-0.151s1.205-0.283,1.679-0.545
		c0.475-0.262,0.847-0.604,1.118-1.028c0.272-0.423,0.41-0.957,0.41-1.603c0-0.605-0.142-1.114-0.424-1.528
		c-0.283-0.413-0.672-0.746-1.164-0.998c-0.496-0.251-1.073-0.438-1.739-0.559c-0.667-0.122-1.372-0.182-2.118-0.182
		s-1.33,0.011-1.753,0.031c-0.424,0.02-0.807,0.051-1.149,0.09V11.342z M96.601,13.702v7.379c0.221,0.02,0.484,0.041,0.787,0.061
		c0.261,0.021,0.568,0.035,0.921,0.045c0.353,0.012,0.761,0.016,1.225,0.016c0.867,0,1.689-0.055,2.465-0.166
		c0.777-0.111,1.458-0.308,2.042-0.59s1.054-0.676,1.406-1.18s0.53-1.139,0.53-1.906c0-0.684-0.132-1.265-0.395-1.738
		c-0.261-0.474-0.64-0.852-1.134-1.135c-0.494-0.281-1.084-0.483-1.77-0.604s-1.452-0.181-2.299-0.181H96.601z"/>
</g>
</svg>
