<?xml version="1.0" encoding="utf-8"?>
<!-- Generator: Adobe Illustrator 16.0.0, SVG Export Plug-In . SVG Version: 6.00 Build 0)  -->
<!DOCTYPE svg PUBLIC "-//W3C//DTD SVG 1.1//EN" "http://www.w3.org/Graphics/SVG/1.1/DTD/svg11.dtd">
<svg version="1.1" id="Шар_1" xmlns="http://www.w3.org/2000/svg" xmlns:xlink="http://www.w3.org/1999/xlink" x="0px" y="0px"
	 width="178px" height="165.431px" viewBox="0 0 178 165.431" enable-background="new 0 0 178 165.431" xml:space="preserve">
<g>
	<g>
		<g>
			<path fill="#2A97EA" d="M34.538,88.125l7.211-7.211c0.799-0.792,0.799-1.945,0-2.736c-0.776-0.773-1.967-0.77-2.736,0
				l-7.211,7.211l-7.211-7.211c-0.77-0.77-1.968-0.77-2.736,0c-0.792,0.791-0.792,1.945,0,2.736l7.211,7.211l-7.211,7.211
				c-0.792,0.792-0.792,1.945,0,2.736c0.437,0.44,0.799,0.596,1.376,0.596c0.569,0,0.924-0.155,1.36-0.592l7.211-7.211l7.211,7.207
				c0.444,0.44,0.799,0.596,1.368,0.596c0.577,0,0.932-0.155,1.368-0.596c0.799-0.795,0.799-1.941,0-2.736L34.538,88.125z"/>
		</g>
		<g>
			<path fill="#E97527" d="M154.766,28.966h-6.604v-6.612c0-1.231-0.739-1.967-1.968-1.967c-1.228,0-1.967,0.736-1.967,1.967v6.612
				h-6.612c-1.228,0-1.967,0.736-1.967,1.964c0,1.231,0.739,1.967,1.967,1.967h6.612v6.612c0,1.231,0.739,1.967,1.967,1.967
				c1.229,0,1.968-0.736,1.968-1.967v-6.612h6.604c1.234,0,1.967-0.736,1.967-1.967C156.732,29.702,156,28.966,154.766,28.966z"/>
		</g>
		<g>
			<path fill="#2A97EA" d="M82.382,31.839C67.517,32.316,55.58,44.553,55.58,59.529c0,15.276,12.425,27.701,27.697,27.701
				c3.713,0,7.248-0.754,11.367-2.426L82.382,59.529V31.839z"/>
		</g>
		<g>
			<path fill="#2A97EA" d="M28.939,31.824H17.506c-1.229,0-1.96,0.736-1.96,1.967s0.731,1.964,1.96,1.964h11.434
				c1.235,0,1.968-0.732,1.968-1.964S30.175,31.824,28.939,31.824z"/>
		</g>
		<g>
			<path fill="#E97527" d="M46.098,31.824h-5.717c-1.228,0-1.96,0.736-1.96,1.967s0.732,1.964,1.96,1.964h5.717
				c1.235,0,1.968-0.732,1.968-1.964S47.333,31.824,46.098,31.824z"/>
		</g>
		<g>
			<path fill="#2A97EA" d="M134.752,83.3h-2.861c-1.206,0-1.961,0.754-1.961,1.963c0,1.231,0.732,1.967,1.961,1.967h2.861
				c1.229,0,1.96-0.735,1.96-1.967C136.712,84.036,135.98,83.3,134.752,83.3z"/>
		</g>
		<g>
			<path fill="#E97527" d="M20.36,20.387h-2.854c-1.229,0-1.96,0.736-1.96,1.967c0,1.228,0.731,1.96,1.96,1.96h2.854
				c1.213,0,1.975-0.751,1.975-1.96C22.335,21.123,21.596,20.387,20.36,20.387z"/>
		</g>
		<g>
			<path fill="#2A97EA" d="M46.098,20.387H31.802c-1.213,0-1.96,0.75-1.96,1.967c0,1.209,0.747,1.96,1.96,1.96h14.296
				c1.235,0,1.968-0.732,1.968-1.96C48.065,21.123,47.333,20.387,46.098,20.387z"/>
		</g>
		<g>
			<path fill="#2A97EA" d="M160.49,83.3h-14.297c-1.213,0-1.967,0.754-1.967,1.963c0,1.231,0.739,1.967,1.967,1.967h14.297
				c1.234,0,1.967-0.735,1.967-1.967C162.457,84.036,161.725,83.3,160.49,83.3z"/>
		</g>
		<g>
			<path fill="#2A97EA" d="M160.49,94.742h-5.725c-1.228,0-1.96,0.731-1.96,1.963c0,1.213,0.754,1.964,1.96,1.964h5.725
				c1.213,0,1.967-0.751,1.967-1.964C162.457,95.473,161.725,94.742,160.49,94.742z"/>
		</g>
		<g>
			<path fill="#E97527" d="M143.332,94.742h-11.435c-1.235,0-1.968,0.731-1.968,1.963c0,1.228,0.732,1.964,1.968,1.964h11.435
				c1.213,0,1.967-0.751,1.967-1.964C145.299,95.473,144.559,94.742,143.332,94.742z"/>
		</g>
		<g>
			<path fill="#E97527" d="M122.416,53.809c0-14.977-11.944-27.213-26.803-27.69v30.338l11.094,22.191h0.104
				C116.3,73.966,122.416,64.237,122.416,53.809z"/>
		</g>
	</g>
	<path fill="#565656" d="M166.092,0H11.907C5.454,0,0,5.455,0,11.907v111.855c0,6.457,5.454,11.911,11.907,11.911h55.417
		l0.011,0.074c1.12,6.275-1.479,12.776-6.619,16.566l-1.923,1.395h-4.56c-3.177,0-5.861,2.685-5.861,5.861
		c0,3.176,2.685,5.861,5.861,5.861h69.532c3.177,0,5.861-2.686,5.861-5.861c0-3.177-2.685-5.861-5.861-5.861h-4.549l-1.915-1.383
		c-5.151-3.791-7.755-10.299-6.638-16.574l0.011-0.078h55.417c6.453,0,11.908-5.454,11.908-11.911V11.907
		C178,5.455,172.545,0,166.092,0z M123.766,162.775H54.233c-1.679,0-3.206-1.526-3.206-3.205c0-1.68,1.527-3.207,3.206-3.207h69.532
		c1.679,0,3.206,1.527,3.206,3.207C126.972,161.249,125.444,162.775,123.766,162.775z M63.152,153.708l0.193-0.166
		c5.136-4.401,7.717-11.209,6.733-17.766l-0.015-0.104h37.87l-0.015,0.107c-0.979,6.553,1.602,13.36,6.734,17.762l0.191,0.166
		H63.152z M166.092,133.018H11.907c-5.015,0-9.253-4.237-9.253-9.256v-10.069h172.69v10.069
		C175.345,128.781,171.106,133.018,166.092,133.018z M11.907,2.655h154.185c5.015,0,9.253,4.238,9.253,9.252v99.13H2.654v-99.13
		C2.654,6.893,6.893,2.655,11.907,2.655z"/>
</g>
</svg>
