<?xml version="1.0" encoding="utf-8"?>
<!-- Generator: Adobe Illustrator 16.0.0, SVG Export Plug-In . SVG Version: 6.00 Build 0)  -->
<!DOCTYPE svg PUBLIC "-//W3C//DTD SVG 1.1//EN" "http://www.w3.org/Graphics/SVG/1.1/DTD/svg11.dtd">
<svg version="1.1" id="Шар_1" xmlns="http://www.w3.org/2000/svg" xmlns:xlink="http://www.w3.org/1999/xlink" x="0px" y="0px"
	 width="178px" height="165.431px" viewBox="0 0 178 165.431" enable-background="new 0 0 178 165.431" xml:space="preserve">
<g>
	<g>
		<g>
			<path fill="#C82236" d="M34.542,88.125l7.211-7.211c0.795-0.792,0.795-1.945,0-2.736c-0.776-0.773-1.972-0.77-2.736,0
				l-7.211,7.211l-7.212-7.211c-0.772-0.77-1.967-0.77-2.736,0c-0.791,0.791-0.791,1.945,0,2.736l7.208,7.211l-7.208,7.211
				c-0.791,0.792-0.791,1.945,0,2.736c0.437,0.44,0.795,0.596,1.372,0.596c0.569,0,0.925-0.155,1.361-0.592l7.215-7.211l7.211,7.207
				c0.439,0.44,0.795,0.596,1.364,0.596c0.577,0,0.932-0.155,1.372-0.596c0.795-0.795,0.795-1.941,0-2.736L34.542,88.125z"/>
		</g>
		<g>
			<path fill="#C82236" d="M154.77,28.966h-6.608v-6.612c0-1.231-0.736-1.967-1.968-1.967c-1.228,0-1.963,0.736-1.963,1.967v6.612
				h-6.616c-1.228,0-1.964,0.736-1.964,1.964c0,1.231,0.736,1.967,1.964,1.967h6.616v6.612c0,1.231,0.735,1.967,1.963,1.967
				c1.231,0,1.968-0.736,1.968-1.967v-6.612h6.608c1.23,0,1.967-0.736,1.967-1.967C156.736,29.702,156,28.966,154.77,28.966z"/>
		</g>
		<g>
			<path fill="#C82236" d="M82.382,31.839c-14.862,0.477-26.803,12.713-26.803,27.69c0,15.276,12.425,27.701,27.698,27.701
				c3.712,0,7.251-0.754,11.367-2.426L82.382,59.529V31.839z"/>
		</g>
		<g>
			<g>
				<path fill="#2A97EA" d="M28.943,31.824H17.506c-1.229,0-1.961,0.736-1.961,1.967s0.732,1.964,1.961,1.964h11.438
					c1.231,0,1.967-0.732,1.967-1.964S30.175,31.824,28.943,31.824z"/>
			</g>
			<g>
				<path fill="#2A97EA" d="M46.102,31.824h-5.721c-1.228,0-1.96,0.736-1.96,1.967s0.732,1.964,1.96,1.964h5.721
					c1.231,0,1.967-0.732,1.967-1.964S47.333,31.824,46.102,31.824z"/>
			</g>
			<g>
				<path fill="#2A97EA" d="M134.756,83.3h-2.862c-1.209,0-1.964,0.754-1.964,1.963c0,1.231,0.736,1.967,1.964,1.967h2.862
					c1.228,0,1.96-0.735,1.96-1.967C136.716,84.036,135.983,83.3,134.756,83.3z"/>
			</g>
			<g>
				<path fill="#2A97EA" d="M20.364,20.387h-2.858c-1.229,0-1.961,0.736-1.961,1.967c0,1.228,0.732,1.96,1.961,1.96h2.858
					c1.213,0,1.971-0.751,1.971-1.96C22.335,21.123,21.6,20.387,20.364,20.387z"/>
			</g>
			<g>
				<path fill="#2A97EA" d="M46.102,20.387H31.806c-1.214,0-1.964,0.75-1.964,1.967c0,1.209,0.75,1.96,1.964,1.96h14.296
					c1.231,0,1.967-0.732,1.967-1.96C48.068,21.123,47.333,20.387,46.102,20.387z"/>
			</g>
			<g>
				<path fill="#2A97EA" d="M160.493,83.3h-14.3c-1.209,0-1.963,0.754-1.963,1.963c0,1.231,0.735,1.967,1.963,1.967h14.3
					c1.231,0,1.964-0.735,1.964-1.967C162.457,84.036,161.725,83.3,160.493,83.3z"/>
			</g>
			<g>
				<path fill="#2A97EA" d="M160.493,94.742h-5.724c-1.229,0-1.961,0.731-1.961,1.963c0,1.213,0.751,1.964,1.961,1.964h5.724
					c1.213,0,1.964-0.751,1.964-1.964C162.457,95.473,161.725,94.742,160.493,94.742z"/>
			</g>
			<g>
				<path fill="#2A97EA" d="M143.335,94.742h-11.438c-1.231,0-1.968,0.731-1.968,1.963c0,1.228,0.736,1.964,1.968,1.964h11.438
					c1.209,0,1.964-0.751,1.964-1.964C145.299,95.473,144.562,94.742,143.335,94.742z"/>
			</g>
			<g>
				<path fill="#2A97EA" d="M122.42,53.809c0-14.977-11.945-27.213-26.807-27.69v30.338l11.098,22.191h0.1
					C116.299,73.966,122.42,64.237,122.42,53.809z"/>
			</g>
		</g>
	</g>
	<path fill="#565656" d="M166.092,0H11.906C5.454,0,0,5.455,0,11.907v111.855c0,6.457,5.454,11.911,11.906,11.911h55.418
		l0.011,0.074c1.12,6.275-1.479,12.776-6.619,16.566l-1.923,1.395h-4.56c-3.177,0-5.861,2.685-5.861,5.861
		c0,3.176,2.685,5.861,5.861,5.861h69.532c3.177,0,5.861-2.686,5.861-5.861c0-3.177-2.685-5.861-5.861-5.861h-4.549l-1.915-1.383
		c-5.151-3.791-7.755-10.299-6.638-16.574l0.011-0.078h55.417c6.453,0,11.908-5.454,11.908-11.911V11.907
		C178,5.455,172.545,0,166.092,0z M123.766,162.775H54.233c-1.679,0-3.206-1.526-3.206-3.205c0-1.68,1.527-3.207,3.206-3.207h69.532
		c1.679,0,3.206,1.527,3.206,3.207C126.972,161.249,125.444,162.775,123.766,162.775z M63.152,153.708l0.192-0.166
		c5.137-4.401,7.718-11.209,6.734-17.766l-0.015-0.104h37.87l-0.015,0.107c-0.98,6.553,1.602,13.36,6.734,17.762l0.191,0.166H63.152
		z M166.092,133.018H11.906c-5.014,0-9.252-4.237-9.252-9.256v-10.069h172.689v10.069
		C175.344,128.781,171.106,133.018,166.092,133.018z M11.906,2.655h154.186c5.015,0,9.252,4.238,9.252,9.252v99.13H2.654v-99.13
		C2.654,6.893,6.893,2.655,11.906,2.655z"/>
</g>
</svg>
